<svg width="24" height="25" viewBox="0 0 24 25" fill="none" xmlns="http://www.w3.org/2000/svg">
<g clip-path="url(#clip0_2_105)">
<path d="M16 22.6092V18.6947C16.0375 18.2124 15.9731 17.7275 15.811 17.2723C15.6489 16.8172 15.3929 16.4021 15.06 16.0547C18.2 15.7007 21.5 14.497 21.5 8.97425C21.4997 7.56203 20.9627 6.20397 20 5.18115C20.4559 3.94561 20.4236 2.57994 19.91 1.36781C19.91 1.36781 18.73 1.01379 16 2.86483C13.708 2.23651 11.292 2.23651 9 2.86483C6.27 1.01379 5.09 1.36781 5.09 1.36781C4.57638 2.57994 4.54414 3.94561 5 5.18115C4.03013 6.21156 3.49252 7.58189 3.5 9.0046C3.5 14.4869 6.8 15.6906 9.94 16.0851C9.611 16.4289 9.35726 16.839 9.19531 17.2887C9.03335 17.7383 8.96681 18.2174 9 18.6947V22.6092M9 19.5747C4 21.092 4 17.046 2 16.5402L9 19.5747Z" stroke="#837E9F" stroke-width="2" stroke-linecap="round" stroke-linejoin="round"/>
</g>
<defs>
<clipPath id="clip0_2_105">
<rect width="24" height="24.2759" fill="white" transform="translate(0 0.356323)"/>
</clipPath>
</defs>
</svg>
