<svg width="24" height="26" viewBox="0 0 24 26" fill="none" xmlns="http://www.w3.org/2000/svg">
<path d="M16 8.95403C17.5913 8.95403 19.1174 9.59344 20.2426 10.7316C21.3679 11.8697 22 13.4134 22 15.023V22.1035H18V15.023C18 14.4865 17.7893 13.9719 17.4142 13.5925C17.0391 13.2131 16.5304 13 16 13C15.4696 13 14.9609 13.2131 14.5858 13.5925C14.2107 13.9719 14 14.4865 14 15.023V22.1035H10V15.023C10 13.4134 10.6321 11.8697 11.7574 10.7316C12.8826 9.59344 14.4087 8.95403 16 8.95403V8.95403Z" stroke="#837E9F" stroke-width="2" stroke-linecap="round" stroke-linejoin="round"/>
<path d="M6 9.96552H2V22.1035H6V9.96552Z" stroke="#837E9F" stroke-width="2" stroke-linecap="round" stroke-linejoin="round"/>
<path d="M4 6.93104C5.10457 6.93104 6 6.02532 6 4.90805C6 3.79079 5.10457 2.88506 4 2.88506C2.89543 2.88506 2 3.79079 2 4.90805C2 6.02532 2.89543 6.93104 4 6.93104Z" stroke="#837E9F" stroke-width="2" stroke-linecap="round" stroke-linejoin="round"/>
</svg>
