<svg width="24" height="26" viewBox="0 0 24 26" fill="none" xmlns="http://www.w3.org/2000/svg">
<path d="M20 7.93105H4C2.89543 7.93105 2 8.83677 2 9.95403V20.069C2 21.1862 2.89543 22.092 4 22.092H20C21.1046 22.092 22 21.1862 22 20.069V9.95403C22 8.83677 21.1046 7.93105 20 7.93105Z" stroke="#837E9F" stroke-width="2" stroke-linecap="round" stroke-linejoin="round"/>
<path d="M16 22.092V5.90806C16 5.37153 15.7893 4.85697 15.4142 4.47759C15.0391 4.09821 14.5304 3.88507 14 3.88507H10C9.46957 3.88507 8.96086 4.09821 8.58579 4.47759C8.21071 4.85697 8 5.37153 8 5.90806V22.092" stroke="#837E9F" stroke-width="2" stroke-linecap="round" stroke-linejoin="round"/>
</svg>
