<svg width="128" height="114" viewBox="0 0 128 114" fill="none" xmlns="http://www.w3.org/2000/svg">
<path d="M43.4717 19.9911V0.302002C43.4717 -0.228431 43.261 -0.737139 42.8859 -1.11221C42.5108 -1.48728 42.0021 -1.698 41.4717 -1.698C40.9412 -1.698 40.4325 -1.48728 40.0575 -1.11221C39.6824 -0.737139 39.4717 -0.228431 39.4717 0.302002V19.551C37.8513 19.8577 36.3948 20.7361 35.3675 22.0263C34.3402 23.3164 33.8102 24.9325 33.8741 26.5805C33.938 28.2284 34.5915 29.7987 35.7156 31.0054C36.8398 32.2121 38.3598 32.9751 39.9992 33.1554C41.6385 33.3358 43.288 32.9215 44.6476 31.9881C46.0072 31.0546 46.9865 29.664 47.4071 28.0693C47.8278 26.4747 47.6618 24.782 46.9396 23.2994C46.2173 21.8168 44.9867 20.6428 43.4717 19.9911V19.9911ZM40.749 29.1989C40.1783 29.1989 39.6203 29.0297 39.1458 28.7126C38.6712 28.3955 38.3013 27.9448 38.0829 27.4175C37.8645 26.8902 37.8074 26.31 37.9187 25.7502C38.0301 25.1904 38.3049 24.6763 38.7085 24.2727C39.1121 23.8691 39.6263 23.5943 40.186 23.4829C40.7458 23.3716 41.326 23.4287 41.8533 23.6471C42.3806 23.8655 42.8313 24.2354 43.1484 24.71C43.4655 25.1845 43.6347 25.7425 43.6347 26.3132C43.6339 27.0783 43.3296 27.8118 42.7886 28.3528C42.2476 28.8938 41.5141 29.1981 40.749 29.1989Z" fill="#EDDFCA"/>
<path d="M81.9966 9.4938V0.302002C81.9966 -0.228431 81.7859 -0.737139 81.4108 -1.11221C81.0357 -1.48728 80.527 -1.698 79.9966 -1.698C79.4662 -1.698 78.9574 -1.48728 78.5824 -1.11221C78.2073 -0.737139 77.9966 -0.228431 77.9966 0.302002V9.57208C76.0334 10.0992 74.3309 11.3266 73.2105 13.0227C72.09 14.7188 71.6291 16.7663 71.9146 18.7789C72.2002 20.7915 73.2124 22.63 74.7604 23.9475C76.3083 25.2651 78.285 25.9705 80.3174 25.9308C82.3497 25.891 84.2973 25.1088 85.7925 23.7317C87.2878 22.3547 88.2274 20.478 88.434 18.4557C88.6406 16.4335 88.0999 14.4056 86.914 12.7546C85.7281 11.1036 83.9789 9.94374 81.9966 9.49383V9.4938ZM80.1484 21.9372C79.2923 21.9372 78.4554 21.6834 77.7436 21.2077C77.0317 20.7321 76.4769 20.0561 76.1493 19.2651C75.8217 18.4742 75.736 17.6038 75.903 16.7641C76.07 15.9245 76.4823 15.1532 77.0876 14.5478C77.693 13.9424 78.4643 13.5302 79.304 13.3632C80.1436 13.1961 81.014 13.2819 81.8049 13.6095C82.5959 13.9371 83.2719 14.4919 83.7475 15.2038C84.2232 15.9156 84.4771 16.7525 84.4771 17.6086C84.4757 18.7562 84.0192 19.8565 83.2078 20.6679C82.3963 21.4794 81.2961 21.9359 80.1484 21.9372Z" fill="#EDDFCA"/>
<path d="M48.4228 42.7926V33.6564C48.4228 33.3673 48.3658 33.0811 48.2552 32.814C48.1446 32.5469 47.9824 32.3043 47.778 32.0999C47.5736 31.8955 47.331 31.7333 47.0639 31.6227C46.7968 31.5121 46.5106 31.4552 46.2215 31.4552H35.2765C34.6927 31.4552 34.1328 31.6871 33.72 32.0999C33.3072 32.5127 33.0753 33.0726 33.0753 33.6564V42.7926C27.5988 44.6151 22.9497 48.3272 19.9602 53.2644C16.9707 58.2016 15.8359 64.0416 16.759 69.7391C17.6821 75.4365 20.6028 80.6195 24.9984 84.3602C29.3939 88.1008 34.9773 90.155 40.749 90.155C46.5208 90.155 52.1041 88.1008 56.4997 84.3602C60.8952 80.6195 63.8159 75.4365 64.739 69.7391C65.6621 64.0416 64.5274 58.2016 61.5378 53.2644C58.5483 48.3272 53.8992 44.6151 48.4227 42.7926H48.4228Z" fill="#EDDFCA"/>
<path d="M42.279 39.3104C43.8149 39.3104 43.8149 37.8429 45.3509 37.8429C46.8868 37.8429 46.8868 39.3104 48.4228 39.3104V33.6564C48.4228 33.3673 48.3659 33.0811 48.2552 32.814C48.1446 32.547 47.9825 32.3043 47.7781 32.0999C47.5737 31.8955 47.331 31.7334 47.0639 31.6228C46.7969 31.5121 46.5106 31.4552 46.2216 31.4552H35.2766C34.9875 31.4552 34.7013 31.5121 34.4342 31.6228C34.1672 31.7334 33.9245 31.8955 33.7201 32.0999C33.5157 32.3043 33.3536 32.547 33.2429 32.814C33.1323 33.0811 33.0754 33.3673 33.0754 33.6564V37.843C34.6088 37.843 34.6087 39.3104 36.1421 39.3104C37.6756 39.3104 37.6756 37.843 39.2092 37.843C40.7441 37.8429 40.7441 39.3104 42.279 39.3104Z" fill="#EFD99C"/>
<path d="M32.6466 75.1128C40.7479 75.1128 40.7479 67.7754 48.8492 67.7754C56.3085 67.7754 56.9001 73.9954 63.2706 74.9815L63.284 74.9491L65.0187 65.0303C65.0165 64.9661 65.0135 64.9021 65.0109 64.838C56.9531 64.8118 56.936 57.503 48.8492 57.503C40.7479 57.503 40.7479 64.8405 32.6466 64.8405C25.0612 64.8405 24.5789 58.4063 17.8962 57.5884C16.7458 60.7684 16.2711 64.1534 16.5025 67.5272C16.5081 67.6113 16.5244 67.6924 16.5309 67.7763C24.5458 67.8277 24.575 75.1128 32.6466 75.1128Z" fill="#DD5E58"/>
<path d="M90.0883 38.9543V27.1201C90.0883 26.3639 89.7879 25.6387 89.2532 25.104C88.7185 24.5693 87.9933 24.2689 87.2371 24.2689H73.0601C72.3039 24.2689 71.5787 24.5693 71.044 25.104C70.5093 25.6387 70.2089 26.3639 70.2089 27.1201V38.9543C63.1152 41.3149 57.0932 46.1231 53.2209 52.5183C49.3486 58.9134 47.8787 66.478 49.0744 73.8579C50.2701 81.2378 54.0533 87.9513 59.7468 92.7965C65.4403 97.6418 72.6724 100.303 80.1486 100.303C87.6247 100.303 94.8568 97.6418 100.55 92.7965C106.244 87.9513 110.027 81.2378 111.223 73.8579C112.418 66.478 110.949 58.9134 107.076 52.5183C103.204 46.1231 97.182 41.3149 90.0883 38.9543H90.0883Z" fill="#F6ECD9"/>
<path d="M82.1303 34.4438C84.1198 34.4438 84.1198 32.5429 86.1093 32.5429C88.0988 32.5429 88.0988 34.4438 90.0883 34.4438V27.1202C90.0883 26.7457 90.0146 26.375 89.8713 26.029C89.728 25.6831 89.518 25.3688 89.2532 25.104C88.9885 24.8392 88.6742 24.6292 88.3282 24.4859C87.9823 24.3426 87.6115 24.2689 87.2371 24.2689H73.0601C72.6857 24.2689 72.3149 24.3426 71.969 24.4859C71.6231 24.6292 71.3088 24.8392 71.044 25.104C70.7792 25.3688 70.5692 25.6831 70.4259 26.029C70.2827 26.375 70.2089 26.7457 70.2089 27.1202V32.5429C72.1951 32.5429 72.195 34.4438 74.1811 34.4438C76.1676 34.4438 76.1676 32.5429 78.154 32.5429C80.1421 32.5429 80.1421 34.4438 82.1303 34.4438Z" fill="#F7E4A6"/>
<path d="M69.6536 80.8184C80.1472 80.8184 80.1472 71.3144 90.6408 71.3144C100.303 71.3144 101.069 79.3712 109.321 80.6484C110.847 76.8925 111.63 72.8766 111.628 68.8226C111.628 68.381 111.593 67.9483 111.575 67.5111C101.136 67.4781 101.116 58.0086 90.6409 58.0086C80.1472 58.0086 80.1472 67.5126 69.6536 67.5126C59.826 67.5126 59.2035 59.1745 50.542 58.1181C49.0539 62.238 48.4409 66.6228 48.7422 70.9928C48.7495 71.1008 48.7631 71.207 48.7714 71.3148C59.1613 71.3765 59.1956 80.8184 69.6536 80.8184Z" fill="#E56C6C"/>
</svg>
