<?xml version="1.0" encoding="UTF-8"?>
<svg width="300px" height="200px" viewBox="0 0 300 200" version="1.1" xmlns="http://www.w3.org/2000/svg" xmlns:xlink="http://www.w3.org/1999/xlink">
    <!-- Generator: Sketch 51.3 (57544) - http://www.bohemiancoding.com/sketch -->
    <title>santa-claus-by-the-chimney</title>
    <desc>Created with Sketch.</desc>
    <defs></defs>
    <g id="santa-claus-by-the-chimney" stroke="none" stroke-width="1" fill="none" fill-rule="evenodd">
        <g id="Santa_chimney" transform="translate(5.000000, 0.000000)" fill-rule="nonzero">
            <path d="M193.081691,88.0914065 L189.837639,87.428185" id="Shape" fill="#FFFFFF"></path>
            <path d="M193.082617,89.1956715 C193.008126,89.1957502 192.933813,89.1883519 192.860795,89.1735873 L189.617415,88.5104099 C189.020612,88.3883233 188.635639,87.8048685 188.757554,87.2072271 C188.87947,86.6095857 189.462106,86.2240723 190.05891,86.3461587 L193.30229,87.0093361 C193.856596,87.1229081 194.235156,87.6381192 194.178514,88.2018567 C194.121873,88.7655943 193.648407,89.1949574 193.082617,89.1956715 Z" id="Shape" fill="#662059"></path>
            <polygon id="Shape" fill="#FB5956" points="166.003498 84.773499 164.334068 92.9601104 165.115856 93.1202208 169.572814 94.0311939 169.573916 94.0311939 169.573916 94.0322981 169.572814 94.0311939 163.325133 124.679641 185.618745 129.237819 224.295703 137.145066 226.090837 128.337888 225.858175 129.479641 225.858175 129.479641 230.543384 106.496618 235.714867 107.553347 235.782129 107.567702 237.451559 99.3799862"></polygon>
            <path d="M192.193685,90.1053195 L201.731928,92.055354 L211.270304,94.0053885 C216.538175,95.0823225 221.680432,91.6789007 222.755856,86.4036331 C223.831281,81.1283655 220.432631,75.9788883 215.16476,74.9019536 C209.896889,73.8250189 204.754632,77.2284399 203.679206,82.5037074 C204.466847,78.6403969 202.852985,74.6823643 199.590164,72.4752448 C196.327344,70.2681252 192.058127,70.2465763 188.773255,72.4206462 C185.488382,74.5947161 183.834758,78.536256 184.583469,82.4073212 C185.33218,86.2783865 188.335779,89.3166317 192.193685,90.1053195 Z" id="Shape" fill="#FB5956"></path>
            <rect id="Rectangle-path" fill="#F4C95E" transform="translate(184.219674, 112.114309) rotate(11.538690) translate(-184.219674, -112.114309) " x="166.703282" y="109.068142" width="35.0327829" height="6.09233402"></rect>
            <rect id="Rectangle-path" fill="#F4C95E" transform="translate(184.822460, 109.157616) rotate(101.538690) translate(-184.822460, -109.157616) " x="165.396226" y="106.111449" width="38.8524688" height="6.09233402"></rect>
            <rect id="Rectangle-path" fill="#C93E4F" transform="translate(214.331401, 119.062851) rotate(11.538690) translate(-214.331401, -119.062851) " x="200.956667" y="103.342134" width="26.7494677" height="31.4414355"></rect>
            <rect id="Rectangle-path" fill="#C93E4F" transform="translate(223.558708, 100.687073) rotate(11.538690) translate(-223.558708, -100.687073) " x="210.183974" y="96.3944348" width="26.7494677" height="8.58527536"></rect>
            <rect id="Rectangle-path" fill="#CEA045" transform="translate(214.831718, 118.372712) rotate(11.538690) translate(-214.831718, -118.372712) " x="201.225155" y="115.326545" width="27.2131259" height="6.09233402"></rect>
            <path d="M224.296343,138.2489 C224.221833,138.248787 224.147521,138.2412 224.074521,138.226253 L163.104005,125.761833 C162.817472,125.703362 162.565906,125.533219 162.404726,125.288885 C162.243546,125.044552 162.185977,124.746075 162.244701,124.459208 L168.272732,94.8924776 L164.114065,94.042236 C163.517489,93.919898 163.132817,93.3365292 163.254761,92.7390697 L164.923827,84.552392 C165.046462,83.9554969 165.62818,83.5704335 166.224626,83.6913402 L237.672576,98.2984017 C238.269002,98.4209635 238.653559,99.0041598 238.531881,99.601568 L236.862815,107.788246 C236.739976,108.384954 236.1583,108.769747 235.562016,108.648756 L231.40335,107.799034 L225.375319,137.365764 C225.270787,137.879417 224.819818,138.248532 224.296343,138.2489 Z M164.625546,123.81976 L223.436002,135.842065 L229.464033,106.275335 C229.587272,105.678898 230.16864,105.294309 230.764832,105.414824 L234.923498,106.264547 L236.151069,100.241535 L166.863221,86.076058 L165.63565,92.0990697 L169.794316,92.9493112 C170.390893,93.0716493 170.775564,93.655018 170.653621,94.2524776 L164.625546,123.81976 Z" id="Shape" fill="#662059"></path>
            <path d="M201.732689,93.159608 C201.658197,93.1596868 201.583885,93.1522884 201.510867,93.1375238 L191.972414,91.1873678 C186.107961,89.9882065 182.324566,84.2554219 183.521875,78.3827003 C184.719184,72.5099787 190.44382,68.7211041 196.308342,69.9199228 C202.172865,71.1187416 205.956594,76.851305 204.759627,82.7240966 L202.811665,92.2764831 C202.707128,92.7901313 202.256161,93.1592407 201.732689,93.159608 Z M194.122813,71.9062636 C190.027598,71.9178833 186.503122,74.8069874 185.682711,78.8248337 C184.729408,83.5023611 187.742991,88.0681887 192.413897,89.0231387 L200.87237,90.7527619 L202.59959,82.282479 C203.113712,79.7362582 202.459241,77.0934064 200.816665,75.0827675 C199.17409,73.0721286 196.716932,71.9061056 194.122824,71.9062636 L194.122813,71.9062636 Z" id="Shape" fill="#662059"></path>
            <path d="M213.239569,95.3103437 C212.503877,95.3098464 211.7701,95.235246 211.049319,95.0876687 L201.510867,93.1375128 C200.914441,93.0149509 200.529883,92.4317546 200.651562,91.8343464 L202.599524,82.282501 C203.374138,78.4837416 206.113684,75.387375 209.786201,74.1597727 C213.458717,72.9321704 217.506262,73.7598344 220.404165,76.3309915 C223.302067,78.9021487 224.610067,82.8261791 223.835452,86.6249386 L223.835452,86.6243975 C222.806034,91.6688484 218.381036,95.2962282 213.239569,95.3103437 Z M203.032407,91.1943575 L211.490814,92.9234617 C213.733922,93.3822696 216.067163,92.9298878 217.977173,91.6658503 C219.887183,90.4018127 221.217476,88.4296802 221.67536,86.1833651 L221.67536,86.182824 C222.294629,83.1559436 221.25355,80.02822 218.944594,77.9787526 C216.635638,75.9292852 213.409915,75.2697258 210.483469,76.2487172 C207.557023,77.2277086 205.374864,79.6963807 204.759627,82.7240856 L203.032407,91.1943575 Z" id="Shape" fill="#662059"></path>
            <path d="M217.584034,85.3463851 C217.904923,83.7832285 217.367884,82.1674514 216.175536,81.1086658 C214.983187,80.0498802 213.317016,79.709245 211.80565,80.2152774 C210.294283,80.7213099 209.167766,81.9969864 208.851119,83.5610104 L207.959684,87.9336039 L212.326146,88.8262912 C214.737674,89.3193027 217.091708,87.761297 217.584034,85.3463851 Z" id="Shape" fill="#FFFFFF"></path>
            <path d="M213.219115,90.0211346 C212.84514,90.0209745 212.472125,89.9832237 212.10568,89.90845 L207.73914,89.015597 C207.142739,88.8933706 206.758086,88.3102731 206.879836,87.7129717 L207.771437,83.3392629 C208.385774,80.3269946 211.322294,78.3837857 214.330339,78.9989844 C217.338383,79.6141831 219.278868,82.5548261 218.664532,85.5670945 L218.664532,85.5676356 C218.132701,88.156846 215.858821,90.0165246 213.219115,90.0211346 Z M209.260736,87.0724417 L212.547186,87.7442429 C214.361733,88.1144799 216.132775,86.9427475 216.504495,85.1260621 C216.875296,83.3084576 215.704495,81.5339825 213.889439,81.1626611 C212.074383,80.7913398 210.302396,81.963784 209.931595,83.7813885 L209.260736,87.0724417 Z" id="Shape" fill="#662059"></path>
            <path d="M181.646804,109.583647 C181.572293,109.583533 181.497982,109.575946 181.424981,109.560999 L167.444655,106.702344 C167.058788,106.623368 166.744306,106.344244 166.619672,105.970116 C166.495037,105.595988 166.579186,105.183694 166.840419,104.888542 C167.101652,104.59339 167.500282,104.460221 167.886149,104.539197 L181.866476,107.397852 C182.420713,107.511339 182.799249,108.026466 182.742602,108.590117 C182.685955,109.153768 182.212508,109.58303 181.646804,109.583647 Z" id="Shape" fill="#662059"></path>
            <path d="M180.434306,115.530645 C180.359796,115.530531 180.285484,115.522944 180.212484,115.507997 L166.198757,112.6418 C165.602258,112.519713 165.217532,111.936506 165.339448,111.339169 C165.461363,110.741833 166.043753,110.356566 166.640252,110.478653 L180.653978,113.34485 C181.208215,113.458337 181.586752,113.973464 181.530105,114.537115 C181.473458,115.100766 181.00001,115.530028 180.434306,115.530645 Z" id="Shape" fill="#662059"></path>
            <path d="M228.200879,119.100997 C228.126368,119.100883 228.052057,119.093296 227.979056,119.078349 L188.052783,110.91539 C187.456283,110.793303 187.071557,110.210096 187.193473,109.612759 C187.315388,109.015423 187.897778,108.630156 188.494277,108.752243 L228.420551,116.915202 C228.974788,117.028689 229.353324,117.543816 229.296677,118.107467 C229.24003,118.671118 228.766583,119.10038 228.200879,119.100997 Z" id="Shape" fill="#662059"></path>
            <path d="M226.988381,125.047983 C226.913871,125.04787 226.839559,125.040283 226.766559,125.025336 L186.742313,116.841927 C186.145814,116.71984 185.761088,116.136633 185.883004,115.539296 C186.004919,114.94196 186.587309,114.556693 187.183808,114.67878 L227.208053,122.862222 C227.762212,122.975779 228.14066,123.490866 228.084018,124.054456 C228.027377,124.618045 227.554023,125.047284 226.988381,125.047983 Z" id="Shape" fill="#662059"></path>
            <path d="M177.911328,127.908792 C177.836818,127.908679 177.762506,127.901092 177.689506,127.886145 C177.403055,127.827523 177.151592,127.657347 176.99044,127.413056 C176.829288,127.168765 176.771648,126.87037 176.830202,126.58352 L184.566067,88.6393043 C184.644933,88.2528954 184.923665,87.937972 185.297269,87.8131629 C185.670872,87.6883537 186.082588,87.7726203 186.377326,88.0342201 C186.672064,88.29582 186.805047,88.6950099 186.726181,89.0814189 L178.990327,127.025689 C178.885779,127.539337 178.434802,127.908438 177.911328,127.908792 Z" id="Shape" fill="#662059"></path>
            <path d="M183.825222,129.242689 C183.750712,129.242575 183.6764,129.234988 183.6034,129.220041 C183.316949,129.16142 183.065486,128.991244 182.904334,128.746952 C182.743182,128.502661 182.685542,128.204267 182.744095,127.917416 L190.503646,89.8534493 C190.582512,89.4670403 190.861244,89.1521169 191.234848,89.0273078 C191.608451,88.9024987 192.020167,88.9867652 192.314905,89.2483651 C192.609643,89.5099649 192.742626,89.9091548 192.66376,90.2955638 L184.90421,128.359531 C184.799685,128.873196 184.348708,129.242323 183.825222,129.242689 Z" id="Shape" fill="#662059"></path>
            <path d="M224.296343,138.2489 C224.221833,138.248787 224.147521,138.2412 224.074521,138.226253 L185.398444,130.319934 C184.801945,130.197847 184.417219,129.61464 184.539135,129.017303 C184.66105,128.419966 185.24344,128.0347 185.839939,128.156787 L223.435958,135.842087 L224.778746,129.257805 C224.900662,128.660469 225.483052,128.275203 226.079551,128.397289 C226.67605,128.519376 227.060776,129.102583 226.93886,129.69992 L225.375286,137.365764 C225.27045,137.879219 224.819685,138.248178 224.296343,138.2489 Z" id="Shape" fill="#662059"></path>
            <path d="M185.620267,130.342581 C185.545756,130.342468 185.471445,130.334881 185.398444,130.319934 L163.104005,125.761833 C162.817472,125.703362 162.565906,125.533219 162.404726,125.288885 C162.243546,125.044552 162.185977,124.746075 162.244701,124.459208 L168.493484,93.8103741 C168.6154,93.2130375 169.19779,92.8277713 169.794289,92.9498578 C170.390788,93.0719444 170.775514,93.6551521 170.653598,94.2524886 L164.625568,123.81976 L185.839961,128.156798 C186.394176,128.270309 186.772684,128.785429 186.716033,129.349063 C186.659381,129.912697 186.185954,130.341948 185.620267,130.342581 Z" id="Shape" fill="#662059"></path>
            <path d="M226.092446,129.442175 C226.017936,129.442062 225.943624,129.434475 225.870624,129.419528 C225.584173,129.360906 225.33271,129.19073 225.171558,128.946439 C225.010406,128.702148 224.952767,128.403753 225.01132,128.116903 L229.463967,106.275335 C229.542832,105.888926 229.821564,105.574002 230.195168,105.449193 C230.568771,105.324384 230.980487,105.408651 231.275225,105.670251 C231.569963,105.93185 231.702946,106.33104 231.624081,106.717449 L227.171434,128.559017 C227.06691,129.072683 226.615933,129.44181 226.092446,129.442175 Z" id="Shape" fill="#662059"></path>
            <path d="M214.190405,104.256707 C214.115895,104.256593 214.041583,104.249006 213.968583,104.234059 L164.894728,94.2023133 C164.508664,94.1233372 164.194,93.8441082 164.069267,93.4698093 C163.944535,93.0955104 164.028683,92.6830064 164.290014,92.3876837 C164.551346,92.0923609 164.950158,91.959086 165.336222,92.0380621 L214.410044,102.070846 C214.964431,102.184191 215.343144,102.699387 215.286495,103.263157 C215.229847,103.826927 214.756228,104.256239 214.190405,104.256707 Z" id="Shape" fill="#662059"></path>
            <path d="M235.715992,108.657369 C235.641481,108.657256 235.567169,108.649669 235.494169,108.634722 L221.394314,105.752348 C220.797815,105.630261 220.413089,105.047054 220.535004,104.449717 C220.65692,103.85238 221.23931,103.467114 221.835809,103.589201 L235.935664,106.471575 C236.489901,106.585062 236.868437,107.100188 236.81179,107.66384 C236.755143,108.227491 236.281696,108.656753 235.715992,108.657369 Z" id="Shape" fill="#662059"></path>
            <path d="M197.651198,85.826109 L193.284735,84.9334217 C191.518666,84.5723619 190.143688,83.1815061 189.800951,81.4094085 C189.458215,79.6373108 190.215215,77.8329558 191.718965,76.8377118 C193.222715,75.8424678 195.177076,75.8523312 196.670732,76.8627027 C198.164389,77.8730742 198.90319,79.6849783 198.542634,81.4535266" id="Shape" fill="#FFFFFF"></path>
            <path d="M197.430809,86.9079917 L193.065372,86.0156687 C190.861741,85.5659319 189.145683,83.8310915 188.717491,81.6202018 C188.289299,79.4093121 189.233313,77.1578374 191.109285,75.915768 C192.985257,74.6736985 195.423689,74.6856764 197.287403,75.9461158 C199.151116,77.2065551 200.073028,79.4671955 199.623198,81.6737723 C199.544526,82.0601813 199.265972,82.3752078 198.892465,82.5001844 C198.518958,82.6251609 198.107242,82.5411006 197.812408,82.2796681 C197.517573,82.0182357 197.384412,81.6191488 197.463084,81.2327398 C197.734836,79.9014444 197.178934,78.5373169 196.054629,77.7765336 C194.930325,77.0157503 193.459067,77.0081593 192.326994,77.7573009 C191.194921,78.5064424 190.625012,79.8647612 190.88305,81.1987901 C191.141089,82.532819 192.17625,83.5798 193.505775,83.8514617 L197.872315,84.7437847 L197.430809,86.9079917 Z" id="Shape" fill="#662059"></path>
            <path d="M198.087665,132.890678 C198.013154,132.890564 197.938842,132.882977 197.865842,132.86803 C197.579391,132.809409 197.327929,132.639233 197.166777,132.394941 C197.005625,132.15065 196.947985,131.852255 197.006538,131.565405 L203.255321,100.917112 C203.377237,100.319776 203.959627,99.9345097 204.556126,100.056596 C205.152625,100.178683 205.537351,100.761891 205.415435,101.359227 L199.166652,132.00752 C199.061821,132.521 198.611031,132.889975 198.087665,132.890678 Z" id="Shape" fill="#662059"></path>
            <path d="M209.429785,103.284052 C209.355275,103.283939 209.280963,103.276352 209.207963,103.261405 C208.921512,103.202784 208.670049,103.032608 208.508897,102.788316 C208.347745,102.544025 208.290105,102.24563 208.348659,101.95878 L210.022036,93.7499959 C210.143951,93.1526593 210.726341,92.7673931 211.32284,92.8894796 C211.919339,93.0115662 212.304065,93.5947739 212.18215,94.1921104 L210.508773,102.400894 C210.404248,102.91456 209.953272,103.283687 209.429785,103.284052 Z" id="Shape" fill="#662059"></path>
            <rect id="Rectangle-path" fill="#6E425A" x="142.711514" y="125.05197" width="48.6928414" height="17.8562208"></rect>
            <rect id="Rectangle-path" fill="#8E7082" x="191.175752" y="125.05197" width="56.1225091" height="17.8562208"></rect>
            <rect id="Rectangle-path" fill="#6E425A" x="149.226756" y="142.90819" width="46.4067924" height="16.6543547"></rect>
            <rect id="Rectangle-path" fill="#8E7082" x="196.033605" y="142.90819" width="47.4926715" height="16.6543547"></rect>
            <rect id="Rectangle-path" fill="#6E425A" x="149.226756" y="159.562545" width="42.1776" height="14.9374189"></rect>
            <rect id="Rectangle-path" fill="#8E7082" x="191.404356" y="159.562545" width="52.1219205" height="14.9374189"></rect>
            <rect id="Rectangle-path" fill="#6E425A" x="149.226756" y="174.499964" width="46.4067924" height="13.9644776"></rect>
            <rect id="Rectangle-path" fill="#8E7082" x="195.633548" y="174.499964" width="47.1510008" height="13.9644776"></rect>
            <rect id="Rectangle-path" fill="#6E425A" x="149.226756" y="188.464442" width="42.8634224" height="9.72934714"></rect>
            <rect id="Rectangle-path" fill="#8E7082" x="192.090178" y="188.464442" width="51.6932829" height="9.72934714"></rect>
            <path d="M247.29825,144.012566 C247.005754,144.012736 246.725189,143.896454 246.518363,143.689338 C246.311537,143.482222 246.195418,143.201263 246.195588,142.908356 L246.195588,126.1565 L143.814429,126.1565 L143.814429,142.908356 C143.814429,143.518194 143.320751,144.012566 142.711768,144.012566 C142.102784,144.012566 141.609106,143.518194 141.609106,142.908356 L141.609106,125.05229 C141.60903,124.759412 141.725179,124.478508 141.931984,124.271411 C142.13879,124.064315 142.4193,123.948004 142.711768,123.94808 L247.29825,123.94808 C247.590746,123.94791 247.871311,124.064191 248.078137,124.271308 C248.284963,124.478424 248.401081,124.759383 248.400911,125.05229 L248.400911,142.908356 C248.401081,143.201263 248.284963,143.482222 248.078137,143.689338 C247.871311,143.896454 247.590746,144.012736 247.29825,144.012566 Z" id="Shape" fill="#662059"></path>
            <path d="M191.403815,144.012566 L180.351397,144.012566 C179.742414,144.012566 179.248735,143.518194 179.248735,142.908356 C179.248735,142.298518 179.742414,141.804146 180.351397,141.804146 L190.301154,141.804146 L190.301154,125.05229 C190.301154,124.442452 190.794832,123.94808 191.403815,123.94808 C192.012798,123.94808 192.506477,124.442452 192.506477,125.05229 L192.506477,142.908356 C192.506647,143.201263 192.390528,143.482222 192.183702,143.689338 C191.976876,143.896454 191.696311,144.012736 191.403815,144.012566 Z" id="Shape" fill="#662059"></path>
            <path d="M243.526155,199.297458 L149.227009,199.297458 C148.934513,199.297628 148.653948,199.181346 148.447122,198.97423 C148.240296,198.767113 148.124178,198.486154 148.124348,198.193248 L148.124348,142.908356 C148.124348,142.298518 148.618026,141.804146 149.227009,141.804146 C149.835992,141.804146 150.329671,142.298518 150.329671,142.908356 L150.329671,197.089038 L242.423449,197.089038 L242.423449,142.908356 C242.423449,142.298518 242.917127,141.804146 243.526111,141.804146 C244.135094,141.804146 244.628772,142.298518 244.628772,142.908356 L244.628772,198.193248 C244.628942,198.486147 244.51283,198.767099 244.306013,198.974214 C244.099197,199.181329 243.818643,199.297616 243.526155,199.297458 Z" id="Shape" fill="#662059"></path>
            <path d="M179.05921,160.666291 L149.227009,160.666291 C148.934513,160.666461 148.653948,160.55018 148.447122,160.343063 C148.240296,160.135947 148.124178,159.854988 148.124348,159.562081 L148.124348,142.908389 C148.124178,142.615482 148.240296,142.334524 148.447122,142.127407 C148.653948,141.920291 148.934513,141.804009 149.227009,141.804179 L155.462858,141.804179 C156.071841,141.804179 156.56552,142.298551 156.56552,142.908389 C156.56552,143.518227 156.071841,144.012599 155.462858,144.012599 L150.329671,144.012599 L150.329671,158.457872 L177.956515,158.457872 L177.956515,144.012599 L160.423799,144.012599 C159.814816,144.012599 159.321137,143.518227 159.321137,142.908389 C159.321137,142.298551 159.814816,141.804179 160.423799,141.804179 L179.05921,141.804179 C179.351706,141.804009 179.632271,141.920291 179.839097,142.127407 C180.045923,142.334524 180.162041,142.615482 180.161871,142.908389 L180.161871,159.562081 C180.162041,159.854988 180.045923,160.135947 179.839097,160.343063 C179.632271,160.55018 179.351706,160.666461 179.05921,160.666291 Z" id="Shape" fill="#662059"></path>
            <path d="M243.526155,160.666291 L222.780183,160.666291 C222.487687,160.666461 222.207122,160.55018 222.000296,160.343063 C221.79347,160.135947 221.677352,159.854988 221.677522,159.562081 L221.677522,142.908389 C221.677352,142.615482 221.79347,142.334524 222.000296,142.127407 C222.207122,141.920291 222.487687,141.804009 222.780183,141.804179 L243.526155,141.804179 C243.818651,141.804009 244.099216,141.920291 244.306042,142.127407 C244.512868,142.334524 244.628986,142.615482 244.628816,142.908389 L244.628816,159.562081 C244.628986,159.854988 244.512868,160.135947 244.306042,160.343063 C244.099216,160.55018 243.818651,160.666461 243.526155,160.666291 Z M223.882845,158.457872 L242.423493,158.457872 L242.423493,144.012599 L223.882845,144.012599 L223.882845,158.457872 Z" id="Shape" fill="#662059"></path>
            <path d="M222.780183,160.666291 L195.633625,160.666291 C195.341129,160.666461 195.060564,160.55018 194.853738,160.343063 C194.646912,160.135947 194.530794,159.854988 194.530963,159.562081 L194.530963,142.908389 C194.530794,142.615482 194.646912,142.334524 194.853738,142.127407 C195.060564,141.920291 195.341129,141.804009 195.633625,141.804179 L222.780205,141.804179 C223.072701,141.804009 223.353266,141.920291 223.560092,142.127407 C223.766918,142.334524 223.883037,142.615482 223.882867,142.908389 L223.882867,159.562081 C223.883037,159.854992 223.766915,160.135954 223.560085,160.343071 C223.353254,160.550188 223.072683,160.666467 222.780183,160.666291 Z M196.736265,158.457872 L221.677522,158.457872 L221.677522,144.012599 L196.736265,144.012599 L196.736265,158.457872 Z" id="Shape" fill="#662059"></path>
            <path d="M191.403815,175.604395 L149.227009,175.604395 C148.934513,175.604565 148.653948,175.488283 148.447122,175.281167 C148.240296,175.074051 148.124178,174.793092 148.124348,174.500185 L148.124348,159.562081 C148.124178,159.269175 148.240296,158.988216 148.447122,158.781099 C148.653948,158.573983 148.934513,158.457702 149.227009,158.457872 L191.403815,158.457872 C191.696311,158.457702 191.976876,158.573983 192.183702,158.781099 C192.390528,158.988216 192.506647,159.269175 192.506477,159.562081 L192.506477,174.500185 C192.506647,174.793092 192.390528,175.074051 192.183702,175.281167 C191.976876,175.488283 191.696311,175.604565 191.403815,175.604395 Z M150.329671,173.395975 L190.301154,173.395975 L190.301154,160.666291 L150.329671,160.666291 L150.329671,173.395975 Z" id="Shape" fill="#662059"></path>
            <path d="M243.526155,175.604395 L209.921914,175.604395 C209.629418,175.604565 209.348853,175.488283 209.142027,175.281167 C208.935201,175.074051 208.819083,174.793092 208.819252,174.500185 L208.819252,159.562081 C208.819083,159.269175 208.935201,158.988216 209.142027,158.781099 C209.348853,158.573983 209.629418,158.457702 209.921914,158.457872 L243.526177,158.457872 C243.818673,158.457702 244.099238,158.573983 244.306064,158.781099 C244.51289,158.988216 244.629008,159.269175 244.628838,159.562081 L244.628838,174.500185 C244.629008,174.793096 244.512887,175.074058 244.306056,175.281175 C244.099225,175.488292 243.818655,175.604571 243.526155,175.604395 Z M211.024554,173.395975 L242.423493,173.395975 L242.423493,160.666291 L211.024554,160.666291 L211.024554,173.395975 Z" id="Shape" fill="#662059"></path>
            <path d="M237.850248,175.604395 L162.943557,175.604395 C162.651061,175.604565 162.370496,175.488283 162.16367,175.281167 C161.956844,175.074051 161.840726,174.793092 161.840895,174.500185 L161.840895,159.562081 C161.840726,159.269175 161.956844,158.988216 162.16367,158.781099 C162.370496,158.573983 162.651061,158.457702 162.943557,158.457872 L237.850248,158.457872 C238.142744,158.457702 238.423309,158.573983 238.630135,158.781099 C238.836961,158.988216 238.95308,159.269175 238.95291,159.562081 L238.95291,164.432894 C238.95291,165.042733 238.459231,165.537104 237.850248,165.537104 C237.241265,165.537104 236.747587,165.042733 236.747587,164.432894 L236.747587,160.666291 L164.046219,160.666291 L164.046219,173.395975 L236.747587,173.395975 L236.747587,170.550261 C236.747587,169.940423 237.241265,169.446051 237.850248,169.446051 C238.459231,169.446051 238.95291,169.940423 238.95291,170.550261 L238.95291,174.500185 C238.95308,174.793092 238.836961,175.074051 238.630135,175.281167 C238.423309,175.488283 238.142744,175.604565 237.850248,175.604395 Z" id="Shape" fill="#662059"></path>
            <path d="M195.633625,189.568773 L149.227009,189.568773 C148.934513,189.568943 148.653948,189.452662 148.447122,189.245545 C148.240296,189.038429 148.124178,188.75747 148.124348,188.464563 L148.124348,174.500185 C148.124178,174.207278 148.240296,173.926319 148.447122,173.719203 C148.653948,173.512087 148.934513,173.395805 149.227009,173.395975 L195.633625,173.395975 C195.926121,173.395805 196.206686,173.512087 196.413512,173.719203 C196.620338,173.926319 196.736456,174.207278 196.736287,174.500185 L196.736287,179.443246 C196.736287,180.053085 196.242608,180.547456 195.633625,180.547456 C195.024642,180.547456 194.530963,180.053085 194.530963,179.443246 L194.530963,175.604395 L150.329671,175.604395 L150.329671,187.360342 L194.530963,187.360342 L194.530963,184.309742 C194.530963,183.699904 195.024642,183.205532 195.633625,183.205532 C196.242608,183.205532 196.736287,183.699904 196.736287,184.309742 L196.736287,188.464552 C196.736459,188.757461 196.620342,189.038422 196.413516,189.245541 C196.20669,189.45266 195.926123,189.568943 195.633625,189.568773 Z" id="Shape" fill="#662059"></path>
            <path d="M243.526155,189.568773 L222.780183,189.568773 C222.487687,189.568943 222.207122,189.452662 222.000296,189.245545 C221.79347,189.038429 221.677352,188.75747 221.677522,188.464563 L221.677522,174.500185 C221.677352,174.207278 221.79347,173.926319 222.000296,173.719203 C222.207122,173.512087 222.487687,173.395805 222.780183,173.395975 L243.526155,173.395975 C243.818651,173.395805 244.099216,173.512087 244.306042,173.719203 C244.512868,173.926319 244.628986,174.207278 244.628816,174.500185 L244.628816,188.464552 C244.628989,188.757461 244.512872,189.038422 244.306046,189.245541 C244.099219,189.45266 243.818653,189.568943 243.526155,189.568773 Z M223.882845,187.360353 L242.423493,187.360353 L242.423493,175.604395 L223.882845,175.604395 L223.882845,187.360353 Z" id="Shape" fill="#662059"></path>
            <path d="M222.780183,189.568773 L179.05921,189.568773 C178.766714,189.568943 178.486149,189.452662 178.279323,189.245545 C178.072497,189.038429 177.956378,188.75747 177.956548,188.464563 L177.956548,174.500185 C177.956378,174.207278 178.072497,173.926319 178.279323,173.719203 C178.486149,173.512087 178.766714,173.395805 179.05921,173.395975 L222.780172,173.395975 C223.072668,173.395805 223.353233,173.512087 223.560059,173.719203 C223.766885,173.926319 223.883004,174.207278 223.882834,174.500185 L223.882834,188.464552 C223.883007,188.757459 223.766891,189.038419 223.560067,189.245537 C223.353243,189.452656 223.072679,189.56894 222.780183,189.568773 Z M180.161871,187.360353 L221.677522,187.360353 L221.677522,175.604395 L180.161871,175.604395 L180.161871,187.360353 Z" id="Shape" fill="#662059"></path>
            <path d="M162.943557,199.297458 L149.227009,199.297458 C148.934513,199.297628 148.653948,199.181346 148.447122,198.97423 C148.240296,198.767113 148.124178,198.486154 148.124348,198.193248 L148.124348,188.464552 C148.124178,188.171645 148.240296,187.890686 148.447122,187.68357 C148.653948,187.476454 148.934513,187.360172 149.227009,187.360342 L162.943513,187.360342 C163.236009,187.360172 163.516574,187.476454 163.7234,187.68357 C163.930226,187.890686 164.046344,188.171645 164.046175,188.464552 L164.046175,198.193248 C164.046344,198.486147 163.930232,198.767099 163.723416,198.974214 C163.516599,199.181329 163.236045,199.297616 162.943557,199.297458 Z M150.329671,197.089038 L161.840895,197.089038 L161.840895,189.568762 L150.329671,189.568762 L150.329671,197.089038 Z" id="Shape" fill="#662059"></path>
            <path d="M243.526155,199.297458 L209.921914,199.297458 C209.629418,199.297628 209.348853,199.181346 209.142027,198.97423 C208.935201,198.767113 208.819083,198.486154 208.819252,198.193248 L208.819252,188.464552 C208.819083,188.171645 208.935201,187.890686 209.142027,187.68357 C209.348853,187.476454 209.629418,187.360172 209.921914,187.360342 L243.526177,187.360342 C243.818673,187.360172 244.099238,187.476454 244.306064,187.68357 C244.51289,187.890686 244.629008,188.171645 244.628838,188.464552 L244.628838,198.193248 C244.629008,198.486158 244.512887,198.767121 244.306056,198.974238 C244.099225,199.181355 243.818655,199.297633 243.526155,199.297458 Z M211.024554,197.089038 L242.423493,197.089038 L242.423493,189.568762 L211.024554,189.568762 L211.024554,197.089038 Z" id="Shape" fill="#662059"></path>
            <path d="M237.850248,199.297458 L192.089792,199.297458 C191.797296,199.297628 191.516731,199.181346 191.309905,198.97423 C191.103079,198.767113 190.986961,198.486154 190.98713,198.193248 L190.98713,188.464552 C190.986961,188.171645 191.103079,187.890686 191.309905,187.68357 C191.516731,187.476454 191.797296,187.360172 192.089792,187.360342 L237.850248,187.360342 C238.142744,187.360172 238.423309,187.476454 238.630135,187.68357 C238.836961,187.890686 238.95308,188.171645 238.95291,188.464552 L238.95291,198.193248 C238.95308,198.486154 238.836961,198.767113 238.630135,198.97423 C238.423309,199.181346 238.142744,199.297628 237.850248,199.297458 Z M193.192454,197.089038 L236.747587,197.089038 L236.747587,189.568762 L193.192454,189.568762 L193.192454,197.089038 Z" id="Shape" fill="#662059"></path>
            <path d="M180.121668,147.253046 L181.294492,125.05197 L191.175763,125.05197 C191.175772,123.837669 190.694061,122.673103 189.83661,121.814479 C188.979158,120.955854 187.816207,120.47351 186.60361,120.473562 L146.317868,120.473562 C143.19306,120.473562 140.659902,123.010277 140.659902,126.139473 C140.659902,129.268669 143.19306,131.805383 146.317868,131.805383 L156.199138,131.805383 C159.923702,131.805334 162.943045,128.781752 162.943094,125.051959 L174.550537,125.051959 L176.069586,165.472729 C176.088635,166.251084 176.662618,166.90357 177.431273,167.020654 C177.851837,167.070789 178.274488,166.945577 178.600122,166.674377 C178.925755,166.403177 179.125731,166.009844 179.153157,165.586606 L179.80945,153.163219" id="Shape" fill="#FFFFFF"></path>
            <path d="M177.618428,168.135884 C177.513341,168.136197 177.408334,168.130076 177.303993,168.117554 C176.000427,167.9339 175.016095,166.840478 174.968379,165.523092 L173.488828,126.1565 L163.968679,126.1565 C163.414981,130.028444 160.105394,132.905373 156.199436,132.910079 L146.317482,132.910079 C142.583593,132.910079 139.556678,129.878914 139.556678,126.139782 C139.556678,122.40065 142.583593,119.369485 146.317482,119.369485 L186.6034,119.369485 C189.736086,119.372948 192.274768,121.915194 192.278226,125.052279 C192.278396,125.345186 192.162277,125.626144 191.955451,125.833261 C191.748625,126.040377 191.46806,126.156659 191.175564,126.156489 L182.340268,126.156489 L181.223602,147.311161 C181.205183,147.707015 180.976432,148.06266 180.624138,148.243162 C180.271844,148.423664 179.849991,148.401364 179.518632,148.184723 C179.187273,147.968082 178.997183,147.590296 179.020484,147.1947 L180.193143,124.994043 C180.224143,124.407514 180.708176,123.947901 181.294702,123.948058 L189.893092,123.948058 C189.417557,122.533299 188.09407,121.579747 186.603411,121.577894 L146.317493,121.577894 C143.80157,121.577894 141.762012,123.620316 141.762012,126.139771 C141.762012,128.659226 143.80157,130.701648 146.317493,130.701648 L156.199447,130.701648 C159.313737,130.698277 161.837529,128.170942 161.840895,125.052279 C161.840726,124.759372 161.956844,124.478413 162.16367,124.271297 C162.370496,124.06418 162.651061,123.947899 162.943557,123.948069 L174.550581,123.948069 C175.143402,123.947493 175.630296,124.416969 175.65214,125.010219 L177.17153,165.430338 C177.172453,165.663762 177.331056,165.866954 177.557032,165.924218 C177.678827,165.94262 177.80253,165.906326 177.895152,165.825016 C177.987788,165.747865 178.044644,165.635946 178.05237,165.515539 L178.708156,153.105038 C178.726575,152.709184 178.955326,152.353539 179.30762,152.173037 C179.659914,151.992535 180.081767,152.014835 180.413126,152.231476 C180.744485,152.448117 180.934575,152.825903 180.911273,153.221499 L180.254418,165.644963 C180.208551,166.37319 179.866892,167.050842 179.308974,167.520177 C178.835575,167.918591 178.23681,168.136665 177.618428,168.135884 Z" id="Shape" fill="#662059"></path>
            <path d="M251.420297,125.05197 L234.611919,125.05197 L234.611919,122.20397 C234.611951,121.183396 234.207112,120.204614 233.48647,119.48296 C232.765828,118.761306 231.788418,118.355899 230.769275,118.355931 L208.964363,118.355931 C207.945239,118.355908 206.967853,118.761323 206.24724,119.48298 C205.526628,120.204638 205.121826,121.183415 205.121896,122.20397 L205.121896,125.052014 L220.724183,125.052014 L220.724183,129.916798 C220.724304,132.603375 222.89917,134.78122 225.58198,134.781251 L250.162865,134.781251 C252.84573,134.781287 255.020682,132.60343 255.020829,129.916798 C255.020773,125.338126 251.420297,125.05197 251.420297,125.05197 Z" id="Shape" fill="#FFFFFF"></path>
            <path d="M250.162579,135.885195 L225.582046,135.885195 C222.291875,135.881459 219.625594,133.211435 219.621863,129.916643 L219.621863,126.156511 L205.121444,126.156511 C204.828948,126.156681 204.548383,126.040399 204.341557,125.833283 C204.134731,125.626167 204.018612,125.345208 204.018782,125.052301 L204.018782,122.204433 C204.02156,119.470248 206.234254,117.254448 208.964605,117.251666 L230.769088,117.251666 C233.499439,117.254448 235.712133,119.470248 235.714911,122.204433 L235.714911,123.948091 L251.420297,123.948091 C251.44937,123.948091 251.478444,123.94917 251.507517,123.951326 C253.104436,124.078565 256.123832,125.487945 256.123832,129.916643 C256.119979,133.211802 253.453118,135.881928 250.162579,135.885195 Z M206.224094,123.94808 L220.724524,123.94808 C221.01702,123.94791 221.297585,124.064191 221.504411,124.271308 C221.711237,124.478424 221.827356,124.759383 221.827186,125.05229 L221.827186,129.916632 C221.829331,131.992405 223.509184,133.674616 225.582046,133.676765 L250.162579,133.676765 C252.235652,133.674702 253.915864,131.992616 253.91852,129.916632 C253.91852,126.643898 251.757303,126.209336 251.358922,126.1565 L234.612249,126.1565 C234.319753,126.15667 234.039188,126.040388 233.832362,125.833272 C233.625536,125.626155 233.509418,125.345197 233.509588,125.05229 L233.509588,122.204422 C233.507632,120.689573 232.281813,119.462033 230.769088,119.460075 L208.964605,119.460075 C207.45188,119.462033 206.226061,120.689573 206.224105,122.204422 L206.224105,123.94808 L206.224094,123.94808 Z" id="Shape" fill="#662059"></path>
            <path d="M140.659913,198.193789 L280.382045,198.193789" id="Shape" fill="#FFFFFF"></path>
            <path d="M280.382398,199.297458 L140.659891,199.297458 C140.050908,199.297458 139.557229,198.803086 139.557229,198.193248 C139.557229,197.58341 140.050908,197.089038 140.659891,197.089038 L280.382398,197.089038 C280.991381,197.089038 281.48506,197.58341 281.48506,198.193248 C281.48506,198.803086 280.991381,199.297458 280.382398,199.297458 Z" id="Shape" fill="#662059"></path>
            <path d="M288.831807,198.193789 L285.157265,198.193789" id="Shape" fill="#FFFFFF"></path>
            <path d="M288.832193,199.297458 L285.157022,199.297458 C284.548039,199.297458 284.05436,198.803086 284.05436,198.193248 C284.05436,197.58341 284.548039,197.089038 285.157022,197.089038 L288.832193,197.089038 C289.441176,197.089038 289.934855,197.58341 289.934855,198.193248 C289.934855,198.803086 289.441176,199.297458 288.832193,199.297458 Z" id="Shape" fill="#662059"></path>
            <path d="M135.379068,198.193789 L130.60086,198.193789" id="Shape" fill="#FFFFFF"></path>
            <path d="M135.379167,199.297458 L130.600783,199.297458 C129.9918,199.297458 129.498122,198.803086 129.498122,198.193248 C129.498122,197.58341 129.9918,197.089038 130.600783,197.089038 L135.379167,197.089038 C135.98815,197.089038 136.481829,197.58341 136.481829,198.193248 C136.481829,198.803086 135.98815,199.297458 135.379167,199.297458 Z" id="Shape" fill="#662059"></path>
            <path d="M16.0803015,198.193789 L7.99114297,198.193789" id="Shape" fill="#FFFFFF"></path>
            <path d="M16.0801251,199.297458 L7.99106578,199.297458 C7.3820826,199.297458 6.88840418,198.803086 6.88840418,198.193248 C6.88840418,197.58341 7.3820826,197.089038 7.99106578,197.089038 L16.0801251,197.089038 C16.6891083,197.089038 17.1827867,197.58341 17.1827867,198.193248 C17.1827867,198.803086 16.6891083,199.297458 16.0801251,199.297458 Z" id="Shape" fill="#662059"></path>
            <path d="M1.10248517,198.193789 L3.49356274,198.193789" id="Shape" fill="#FFFFFF"></path>
            <path d="M3.49373916,199.297458 L1.1026616,199.297458 C0.493678413,199.297458 0,198.803086 0,198.193248 C0,197.58341 0.493678413,197.089038 1.1026616,197.089038 L3.49373916,197.089038 C4.10272235,197.089038 4.59640076,197.58341 4.59640076,198.193248 C4.59640076,198.803086 4.10272235,199.297458 3.49373916,199.297458 Z" id="Shape" fill="#662059"></path>
            <path d="M58.0516376,198.193789 L117.465779,198.193789" id="Shape" fill="#FFFFFF"></path>
            <path d="M117.465768,199.297458 L58.051792,199.297458 C57.4428088,199.297458 56.9491304,198.803086 56.9491304,198.193248 C56.9491304,197.58341 57.4428088,197.089038 58.051792,197.089038 L117.465757,197.089038 C118.07474,197.089035 118.568421,197.583404 118.568424,198.193242 C118.568427,198.80308 118.074751,199.297454 117.465768,199.297458 Z" id="Shape" fill="#662059"></path>
            <path d="M20.7502939,198.193789 L53.7173175,198.193789" id="Shape" fill="#FFFFFF"></path>
            <path d="M53.7170639,199.297458 L20.7502829,199.297458 C20.1412997,199.297458 19.6476213,198.803086 19.6476213,198.193248 C19.6476213,197.58341 20.1412997,197.089038 20.7502829,197.089038 L53.7170639,197.089038 C54.3260471,197.089038 54.8197255,197.58341 54.8197255,198.193248 C54.8197255,198.803086 54.3260471,199.297458 53.7170639,199.297458 Z" id="Shape" fill="#662059"></path>
            <path d="M257.595168,188.178297 L251.763588,188.178297 L251.763588,185.330253 C251.76362,184.309679 251.358782,183.330897 250.63814,182.609243 C249.917497,181.887589 248.940087,181.482182 247.920945,181.482214 L241.711648,181.482214 C240.692525,181.482191 239.715138,181.887606 238.994525,182.609263 C238.273913,183.330921 237.869111,184.309698 237.869181,185.330253 L237.869181,188.178297 L237.875797,188.178297 L237.875797,193.043081 C237.875919,195.729658 240.050784,197.907503 242.733595,197.907533 L267.31448,197.907533 C269.997345,197.90757 272.172297,195.729713 272.172443,193.043081 C272.172443,188.464453 268.571911,188.178297 268.571911,188.178297 L264.763571,188.178297" id="Shape" fill="#FFFFFF"></path>
            <path d="M267.314138,199.011699 L242.733606,199.011699 C239.443434,199.007963 236.777153,196.337938 236.773422,193.043147 L236.773422,188.298501 C236.769122,188.258747 236.766965,188.218791 236.76696,188.178805 L236.76696,185.329855 C236.770078,182.596405 238.982096,180.381285 241.711714,180.37817 L247.920647,180.37817 C250.650634,180.380823 252.863231,182.596047 252.86647,185.329866 L252.86647,187.074606 L257.594783,187.074606 C258.203766,187.074606 258.697444,187.568978 258.697444,188.178816 C258.697444,188.788654 258.203766,189.283026 257.594783,189.283026 L251.763809,189.283026 C251.471313,189.283196 251.190748,189.166914 250.983922,188.959798 C250.777096,188.752681 250.660977,188.471722 250.661147,188.178816 L250.661147,185.329866 C250.659105,183.815228 249.433163,182.588048 247.920647,182.5866 L241.711714,182.5866 C240.199408,182.58814 238.973826,183.815447 238.972295,185.329877 L238.972295,188.05913 C238.976594,188.098884 238.978751,188.138841 238.978756,188.178827 L238.978756,193.043169 C238.980902,195.118942 240.660754,196.801153 242.733617,196.803302 L267.314149,196.803302 C269.387223,196.801239 271.067434,195.119153 271.07009,193.043169 C271.07009,189.643197 268.738777,189.305673 268.472804,189.278719 L264.763163,189.283037 C264.15418,189.283037 263.660502,188.788665 263.660502,188.178827 C263.660502,187.568989 264.15418,187.074617 264.763163,187.074617 L268.571867,187.074617 C270.256006,187.20509 273.275413,188.614471 273.275413,193.043169 C273.271548,196.338328 270.604677,199.008444 267.314138,199.011699 Z" id="Shape" fill="#662059"></path>
            <rect id="Rectangle-path" fill="#FFFFFF" x="199.419933" y="193.329115" width="25.8466414" height="4.86467357" rx="2.42873314"></rect>
            <path d="M222.837246,199.297458 L201.848987,199.297458 C200.585845,199.299693 199.417697,198.626152 198.785481,197.531073 C198.153264,196.435995 198.153264,195.086158 198.785481,193.99108 C199.417697,192.896002 200.585845,192.22246 201.848987,192.224696 L222.837246,192.224696 C224.100388,192.22246 225.268536,192.896002 225.900752,193.99108 C226.532968,195.086158 226.532968,196.435995 225.900752,197.531073 C225.268536,198.626152 224.100388,199.299693 222.837246,199.297458 Z M201.848987,194.433115 C201.374306,194.431745 200.935096,194.684552 200.69736,195.095988 C200.459624,195.507424 200.459624,196.014729 200.69736,196.426165 C200.935096,196.837601 201.374306,197.090409 201.848987,197.089038 L222.837246,197.089038 C223.311927,197.090409 223.751136,196.837601 223.988873,196.426165 C224.226609,196.014729 224.226609,195.507424 223.988873,195.095988 C223.751136,194.684552 223.311927,194.431745 222.837246,194.433115 L201.848987,194.433115 Z" id="Shape" fill="#662059"></path>
            <path d="M84.062697,118.11687 C84.062697,118.11687 86.3869091,106.305402 111.037295,92.9280773 C128.334306,83.5413002 121.852939,69.5327205 121.852939,69.5327205 C154.798185,97.2058965 132.227,119.663194 132.227,119.663194 L133.383416,148.25695 C133.383416,148.25695 105.793202,154.141714 86.7088532,152.946672 L83.9756198,137.966222 L81.5370616,152.830465 C62.8125445,153.87698 34.9732281,147.510382 34.9732281,147.510382 L35.637251,119.663205 C35.637251,119.663205 13.6263281,97.2446432 45.7109909,70.1261449 C45.7109909,70.1261449 38.4396103,83.2755832 64.2881814,98.0070449 C85.3305042,109.999326 84.062697,118.11687 84.062697,118.11687 Z" id="Shape" fill="#FB5956"></path>
            <path d="M83.609051,158.20514 C81.5194034,158.20514 79.6715365,159.563304 79.0450574,161.55963 L77.2513798,167.275362 L52.2561255,167.798647 C43.8953373,158.205129 43.5922266,149.617137 43.5922266,149.617137 L81.5370175,152.830454 L84.0626749,139.234871 L86.7088091,152.946661 C102.973068,153.516754 124.222559,150.142807 124.222559,150.142807 C124.222559,150.142807 123.148566,158.205129 114.787789,167.798647 L89.7925346,167.275362 L87.998857,161.55963 C87.3723779,159.563304 85.5245111,158.20514 83.4348635,158.20514" id="Shape" fill="#C93E4F"></path>
            <path d="M56.9080342,178.744491 L59.4991236,188.562683 L47.4406479,192.443594 C46.0196911,192.900881 45.1428043,194.326168 45.3739724,195.802757 C45.6051404,197.279345 46.8755232,198.367521 48.3680525,198.367404 L72.8971567,198.367404 L74.8728506,178.443638 L56.9080342,178.744491 Z" id="Shape" fill="#FB5956"></path>
            <path d="M111.586398,178.744491 L108.995309,188.562683 L121.053785,192.443594 C122.474742,192.900881 123.351628,194.326168 123.12046,195.802757 C122.889292,197.279345 121.61891,198.367521 120.12638,198.367404 L95.597265,198.367404 L93.6215711,178.443638 L111.586398,178.744491 Z" id="Shape" fill="#FB5956"></path>
            <path d="M132.227011,119.663183 C132.227011,119.663183 126.728644,126.426313 124.649763,126.586048 C122.832466,126.725676 124.627368,120.247365 121.858143,120.456988 C110.456049,121.320105 93.502197,123.675859 91.7268125,123.618507 L91.7268125,136.21001 C94.4266464,136.297242 99.162192,136.231111 99.162192,136.231111 L111.433503,134.914286 C121.995579,133.880215 133.489735,132.084969 133.489735,132.084969 L132.227011,119.663183 Z" id="Shape" fill="#FFFFFF"></path>
            <path d="M35.6371738,118.693278 C35.6371738,118.693278 41.1355407,125.456409 43.2144217,125.616144 C45.0317183,125.755771 43.8762502,121.273286 46.6454635,121.482876 C58.0475578,122.345993 74.3619654,123.833739 76.1373719,123.77632 L76.1373719,135.240061 C73.437538,135.327293 68.7019924,135.261162 68.7019924,135.261162 L56.430681,133.944337 C45.8686053,132.910266 34.3744498,131.11502 34.3744498,131.11502 L35.6371738,118.693278 Z" id="Shape" fill="#FFFFFF"></path>
            <path d="M65.5993011,122.267793 C65.5993011,122.267793 75.4121624,125.452886 69.9538772,133.838156 C64.8445072,141.687398 52.7097605,131.338026 52.7097605,131.338026 C52.7097605,131.338026 55.2644399,127.268052 58.7481008,120.814233 C62.2317616,114.360414 69.1991274,117.732682 68.8506863,123.605079" id="Shape" fill="#C93E4F"></path>
            <path d="M102.351916,122.267793 C102.351916,122.267793 92.5390551,125.452886 97.9973403,133.838156 C103.10671,141.687398 115.241457,131.338026 115.241457,131.338026 C115.241457,131.338026 112.686778,127.268052 109.203117,120.814233 C105.719456,114.360414 98.7520901,117.732682 99.1005312,123.605079" id="Shape" fill="#C93E4F"></path>
            <path d="M43.912638,128.149256 C43.6767852,128.14952 43.4471542,128.073498 43.2579327,127.932511 C32.3906844,119.88493 21.2504612,106.349736 29.8913916,87.5690048 C30.0543197,87.2076092 30.3982409,86.9614421 30.7924403,86.9240647 C31.1866398,86.8866874 31.5705869,87.0638392 31.7983541,87.3881897 C32.0261213,87.7125403 32.0627342,88.1342844 31.8942772,88.4931291 C25.4549099,102.488237 29.7196411,115.159685 44.5695046,126.157571 C44.9524193,126.44105 45.1102919,126.938697 44.9609549,127.391501 C44.811618,127.844306 44.3888298,128.14991 43.912638,128.149256 Z" id="Shape" fill="#662059"></path>
            <path d="M33.9940646,83.5489965 C33.5896785,83.5486159 33.2179428,83.3266006 33.0254209,82.970484 C32.8328989,82.6143674 32.8504814,82.1812895 33.0712361,81.8419986 C36.2118468,77.1210685 39.9643036,72.8384671 44.2303038,69.1063851 C44.4268202,68.931158 44.5619624,68.8125438 44.6222669,68.7521546 C44.9002078,68.471077 45.3070696,68.3603765 45.6888343,68.4619591 C46.070599,68.5635417 46.3689251,68.8618834 46.4708808,69.2440465 C46.5728365,69.6262096 46.4628409,70.0337919 46.1825331,70.3125024 C46.1071551,70.3879862 45.9413259,70.5378716 45.6963475,70.7562402 C41.5772488,74.3583904 37.9532293,78.4915149 34.9190103,83.0475859 C34.7154296,83.3608455 34.3672956,83.5495681 33.9940646,83.5489965 Z" id="Shape" fill="#662059"></path>
            <path d="M64.5563156,137.882258 C58.7528091,137.882258 52.2859745,132.426987 51.9946954,132.179014 C51.5778959,131.823042 51.4848444,131.214825 51.7761038,130.750222 C51.8014099,130.710327 54.3545456,126.632083 57.7777475,120.289347 C59.8436281,116.462355 62.9803916,115.784083 65.2287848,116.425717 C68.3112797,117.424557 70.2788157,120.443242 69.9511646,123.671012 C69.9088018,124.276459 69.3908665,124.736908 68.785508,124.707291 C68.4934683,124.690163 68.2202188,124.557436 68.0259937,124.338368 C67.8317685,124.1193 67.7325137,123.831877 67.7501087,123.539456 C67.9907498,121.351517 66.69646,119.285338 64.6246475,118.550029 C62.7827506,118.022725 60.9456943,119.066545 59.7181232,121.339671 C57.1644471,126.070305 55.0856544,129.560856 54.1612049,131.08238 C56.0779395,132.546749 61.3559616,136.208762 65.4591749,135.611362 C66.947875,135.403529 68.2616054,134.529519 69.0299019,133.235798 C69.5141174,132.5119 69.903519,131.728741 70.1885567,130.905529 C70.3794729,130.326363 71.0030899,130.011841 71.5814443,130.203026 C72.1597987,130.39421 72.4738793,131.018702 72.2829631,131.597869 C71.9383665,132.602192 71.4660692,133.557904 70.8777202,134.44143 C69.7643204,136.269779 67.8905338,137.501462 65.7725293,137.79719 C65.3696952,137.854799 64.9632355,137.883229 64.5563156,137.882258 Z" id="Shape" fill="#662059"></path>
            <path d="M71.2638171,128.250622 C70.8022763,128.250572 70.3895817,127.962726 70.2295205,127.52922 C69.1613171,124.631774 65.2960802,123.330208 65.2573106,123.317267 C64.6783596,123.128629 64.3617341,122.505716 64.5501078,121.925952 C64.7384815,121.346188 65.3605211,121.029118 65.9394722,121.217756 C66.1392194,121.282451 70.8562403,122.853587 72.2980806,126.763605 C72.4235085,127.102438 72.375319,127.481299 72.169076,127.777826 C71.962833,128.074353 71.6246741,128.250966 71.2638171,128.250622 Z" id="Shape" fill="#662059"></path>
            <path d="M47.9072722,117.311349 L48.8543152,115.668715 C49.5960691,114.382151 50.8178125,113.443355 52.250775,113.058854 C53.6837375,112.674353 55.210538,112.875642 56.495297,113.61844 C57.7800575,114.361236 58.7175364,115.584694 59.1014985,117.019669 C59.4854606,118.454643 59.2844537,119.983588 58.542697,121.27015 L54.4740962,128.327078 C53.7323423,129.613642 52.5105989,130.552438 51.0776364,130.936939 C49.6446739,131.32144 48.1178734,131.120151 46.8331144,130.377353 C45.5483539,129.634557 44.610875,128.411099 44.2269129,126.976124 C43.8429508,125.54115 44.0439578,124.012205 44.7857144,122.725643 L46.0326924,120.562783" id="Shape" fill="#FFFFFF"></path>
            <path d="M49.6186913,132.235053 C47.228142,132.229764 45.0215351,130.949277 43.8283022,128.874908 C42.6350693,126.800539 42.636029,124.246631 43.8308205,122.173162 L45.0783167,120.011119 C45.2751748,119.669364 45.6392009,119.458797 46.0331834,119.458785 C46.427166,119.458773 46.7912046,119.669319 46.9880832,120.011062 C47.1849617,120.352805 47.184747,120.773788 46.9875202,121.115329 L45.7405643,123.277372 C44.5031336,125.42807 45.2396447,128.176048 47.3861653,129.417234 C49.532686,130.658419 52.2775012,129.923453 53.5189597,127.775084 L57.5877148,120.718498 C58.8251455,118.5678 58.0886344,115.819822 55.9421138,114.578637 C53.7955931,113.337451 51.0507779,114.072418 49.8093194,116.220787 L48.8622544,117.863078 C48.5576032,118.390979 47.8833856,118.571771 47.3560689,118.266962 C46.8287522,117.962153 46.6478695,117.287081 46.9519814,116.758868 L47.8990464,115.116577 C49.7530726,111.919533 53.8411733,110.828163 57.0384092,112.676708 C60.235645,114.525252 61.335812,118.616322 59.4979437,121.822708 L55.4291886,128.879304 C54.2280614,130.955014 52.0143545,132.233501 49.6186913,132.235053 Z" id="Shape" fill="#662059"></path>
            <path d="M83.4544688,122.58723 C83.1415046,122.58715 82.8432747,122.454081 82.6339354,122.221109 C82.424596,121.988138 82.3238135,121.677151 82.3566479,121.365477 C83.3532445,112.05086 73.8454787,105.709206 63.7799205,98.9949814 C54.0271764,92.4894189 43.9422445,85.7622526 43.9422445,75.7828571 C43.9422445,64.4323533 50.6104361,56.5972119 63.7616163,52.4952491 C64.1939589,52.3604582 64.5040825,52.270421 64.6526882,52.2014079 C65.1930115,51.9478023 65.8371107,52.1589436 66.1230875,52.6834175 C66.4037557,53.1970733 66.2237818,53.8411598 65.7176608,54.1343492 C65.3002571,54.3322176 64.8648379,54.4894763 64.4174023,54.6039586 C52.2945863,58.3851263 46.1475677,65.5107246 46.1475677,75.7829013 C46.1475677,84.5799199 55.7328616,90.9733389 65.002651,97.1570131 C75.172124,103.940781 85.6883289,110.955318 84.5490479,121.600596 C84.4892039,122.161069 84.0173456,122.586394 83.4544688,122.58723 Z" id="Shape" fill="#662059"></path>
            <path d="M89.2931943,121.531208 L78.4838027,121.531208 C77.8384361,121.531108 77.2194661,121.78776 76.7630754,122.244696 C76.3066847,122.701633 76.0502636,123.321418 76.0502285,123.967691 L76.0502285,134.389753 C76.0501612,135.036104 76.3065333,135.656001 76.7629316,136.11304 C77.2193299,136.570079 77.838358,136.826811 78.4838027,136.826744 L89.2931943,136.826744 C89.9386389,136.826811 90.5576671,136.570079 91.0140654,136.11304 C91.4704636,135.656001 91.7268357,135.036104 91.7267684,134.389753 L91.7267684,123.967691 C91.7267334,123.321418 91.4703122,122.701633 91.0139216,122.244696 C90.5575309,121.78776 89.9385609,121.531108 89.2931943,121.531208 Z" id="Shape" fill="#F4C95E"></path>
            <path d="M35.3293217,137.363589 L35.3024057,137.363589 C34.6938002,137.348812 34.2122798,136.842965 34.2266601,136.233496 L34.6223943,119.637996 C34.6505513,119.034398 35.1474935,118.559553 35.7509023,118.559669 C36.3595078,118.574445 36.8410281,119.080292 36.8266479,119.689761 L36.4309137,136.285262 C36.4168071,136.88452 35.9279057,137.363096 35.3293217,137.363589 Z" id="Shape" fill="#662059"></path>
            <path d="M77.1890243,154.048585 C58.8518943,154.048585 35.0714422,148.64615 34.814081,148.586843 C34.3031117,148.469736 33.9451634,148.008497 33.9580076,147.483738 L34.0694536,142.822117 C34.1063538,142.222722 34.5983271,141.753092 35.1979616,141.744861 C35.8069282,141.759785 36.2885343,142.266201 36.2737072,142.876025 L36.1843365,146.628616 C40.9584091,147.665965 64.1428395,152.473198 80.5987738,151.771175 L82.9757924,137.780903 C83.0780833,137.1797 83.6476944,136.775368 84.2480544,136.877803 C84.8484144,136.980237 85.2521791,137.550648 85.1498882,138.151851 L82.6242087,153.015553 C82.5380651,153.523477 82.1122433,153.904008 81.598535,153.932135 C80.1771711,154.011925 78.7013909,154.048585 77.1890243,154.048585 Z" id="Shape" fill="#662059"></path>
            <path d="M44.4903555,133.623939 C44.4379404,133.624068 44.3855826,133.620462 44.3336783,133.613151 C39.538611,132.931644 36.2327764,132.348268 36.1999392,132.341797 C35.8119924,132.273197 35.4900927,132.002488 35.3555654,131.631701 C35.2210381,131.260913 35.2943348,130.846418 35.5478298,130.544439 C35.8013248,130.24246 36.1964801,130.098906 36.5843601,130.167884 C36.6166681,130.173273 39.8885738,130.750178 44.6438019,131.426297 C45.2166744,131.507702 45.6292961,132.018655 45.5889375,132.596668 C45.5485788,133.17468 45.0689664,133.623161 44.4903555,133.623939 Z" id="Shape" fill="#662059"></path>
            <path d="M72.3950156,136.4125 C70.4842023,136.4125 68.8022133,136.388781 68.6864559,136.387699 C68.0776605,136.379123 67.5910247,135.878047 67.599408,135.268395 C67.6212258,134.664249 68.1140113,134.184314 68.7176833,134.17928 C68.7645243,134.17928 73.457838,134.245057 76.1019654,134.159867 C76.3962106,134.142684 76.6845967,134.247229 76.8996717,134.44905 C77.1147467,134.65087 77.2376465,134.932265 77.2396255,135.227418 C77.2490255,135.520071 77.1419228,135.804474 76.9418878,136.018035 C76.7418528,136.231597 76.4652785,136.356815 76.1730319,136.366134 C75.0854437,136.401712 73.6877319,136.4125 72.3950156,136.4125 Z" id="Shape" fill="#662059"></path>
            <path d="M73.0454095,124.955241 C72.4079388,124.955241 71.6234722,124.943382 70.2252202,124.922888 L68.6864449,124.901322 C68.0776495,124.892747 67.5910137,124.391671 67.599397,123.782018 C67.6219742,123.17821 68.1143164,122.698706 68.7176722,122.692903 L70.2569878,122.71555 C73.389451,122.759718 73.3899913,122.761927 75.6728426,122.686432 L76.1019544,122.673491 C76.3969127,122.653467 76.6869216,122.757052 76.9026462,122.959482 C77.1183708,123.161913 77.24042,123.444991 77.2396144,123.741041 C77.2589921,124.350397 76.7815165,124.860159 76.1730209,124.879757 L75.7439091,124.893781 C74.4345095,124.936889 73.8594825,124.955241 73.0454095,124.955241 Z" id="Shape" fill="#662059"></path>
            <path d="M84.0628734,138.372914 L78.570516,138.372914 C76.6185389,138.370619 75.0367987,136.786431 75.0347875,134.831713 L75.0347875,124.409651 C75.0367987,122.454933 76.6185389,120.870744 78.570516,120.86845 L83.4528038,120.86845 C84.061787,120.86845 84.5554654,121.362822 84.5554654,121.97266 C84.5554654,122.582498 84.061787,123.07687 83.4528038,123.07687 L78.570516,123.07687 C77.8358503,123.077582 77.2405422,123.673953 77.2401106,124.409651 L77.2401106,134.831713 C77.2405422,135.56741 77.8358503,136.163782 78.570516,136.164494 L84.0628734,136.164494 C84.6718565,136.164494 85.1655347,136.658866 85.1655347,137.268704 C85.1655347,137.878542 84.6718565,138.372914 84.0628734,138.372914 Z" id="Shape" fill="#662059"></path>
            <path d="M86.3365726,134.066054 L81.6147221,134.066054 C80.4191694,134.064849 79.4501989,133.09476 79.4486977,131.897529 C79.4486977,131.287691 79.9423761,130.79332 80.5513593,130.79332 C81.1603425,130.79332 81.6540209,131.287691 81.6540209,131.897529 L86.3365616,131.857634 L86.2972627,127.343746 L81.6147221,127.383641 C81.6185619,127.672415 81.5057393,127.950495 81.3018646,128.154757 C81.0979898,128.35902 80.8203563,128.47214 80.5319856,128.468439 C80.239397,128.463157 79.9608885,128.341693 79.757733,128.13077 C79.5545774,127.919848 79.4434175,127.636745 79.4487087,127.343746 C79.4502099,126.146515 80.4191804,125.176426 81.6147331,125.175222 L86.3365837,125.175222 C87.5321363,125.176426 88.5011068,126.146515 88.502608,127.343746 L88.502608,131.897507 C88.5011189,133.094751 87.5321382,134.064855 86.3365726,134.066054 Z" id="Shape" fill="#662059"></path>
            <path d="M51.6651871,114.359575 C51.2782894,114.360305 50.9193855,114.157676 50.719743,113.8258 L46.8012034,107.313767 C46.4884877,106.791613 46.6567538,106.114512 47.1773807,105.800033 C47.6980076,105.485555 48.3745842,105.652339 48.6899414,106.172897 L52.608481,112.68493 C52.8137036,113.025863 52.819836,113.451009 52.6245322,113.797735 C52.4292285,114.144461 52.062711,114.359112 51.6651871,114.359575 Z" id="Shape" fill="#662059"></path>
            <path d="M52.7102456,168.723578 C52.3914834,168.723926 52.088229,168.585856 51.878938,168.345088 C50.7863398,167.093411 49.7598101,165.78541 48.8035487,164.426435 C48.4532646,163.927666 48.573068,163.238975 49.0711371,162.888199 C49.5692061,162.537423 50.2569323,162.657394 50.6072163,163.156163 C51.5196104,164.452071 52.4986846,165.699587 53.5404726,166.893659 C53.8250557,167.219679 53.8929502,167.682236 53.7140868,168.076472 C53.5352234,168.470709 53.1426559,168.723769 52.7102456,168.723578 Z" id="Shape" fill="#662059"></path>
            <path d="M46.5179958,159.566399 C46.0996814,159.566659 45.7172408,159.329857 45.5305513,158.954987 C43.9969049,156.072379 42.9697246,152.947121 42.4939205,149.715854 C42.4396659,149.108541 42.886826,148.571966 43.4932076,148.516748 C43.7846982,148.487583 44.0756673,148.576923 44.3007362,148.764693 C44.525805,148.952464 44.6660978,149.222917 44.6900916,149.515285 C45.1531019,152.470062 46.1038114,155.327106 47.5032791,157.969391 C47.6736849,158.311439 47.6552952,158.717417 47.4546652,159.04261 C47.2540352,159.367804 46.8997112,159.565943 46.5179958,159.566399 Z" id="Shape" fill="#662059"></path>
            <path d="M75.7466106,179.411975 L55.7129475,179.411975 C52.8691496,179.408853 50.5645734,177.101041 50.5614559,174.253251 L50.5614559,171.149814 C50.5645734,168.302019 52.8691563,165.994205 55.7129586,165.991089 L64.2882034,165.991089 C64.8971866,165.991089 65.390865,166.485461 65.390865,167.095299 C65.390865,167.705137 64.8971866,168.199509 64.2882034,168.199509 L55.7129586,168.199509 C54.0865584,168.201267 52.7685404,169.521141 52.7667901,171.149825 L52.7667901,174.253262 C52.7685404,175.88195 54.0865651,177.201825 55.7129696,177.203578 L75.7466327,177.203578 C77.3730329,177.201825 78.6910558,175.881956 78.6928122,174.253273 L78.6928122,171.149836 C78.6910558,169.521156 77.3730396,168.20129 75.7466437,168.199531 L70.8121228,168.199531 C70.2031396,168.199531 69.7094612,167.705159 69.7094612,167.095321 C69.7094612,166.485483 70.2031396,165.991111 70.8121228,165.991111 L75.7466437,165.991111 C78.5904503,165.994227 80.8950349,168.302047 80.8981464,171.149847 L80.8981464,174.253284 C80.8950106,177.101079 78.5904129,179.408878 75.7466106,179.411975 Z" id="Shape" fill="#662059"></path>
            <path d="M77.7053346,168.199509 C77.354101,168.199802 77.0237472,168.032483 76.8158417,167.748995 C76.6079362,167.465506 76.5473627,167.099779 76.6527449,166.764257 L78.4467753,161.04911 C79.2106693,158.587547 81.4888584,156.913086 84.0629175,156.921264 C84.6719007,156.921264 85.1655791,157.415636 85.1655791,158.025474 C85.1655791,158.635312 84.6719007,159.129684 84.0629175,159.129684 C82.4531542,159.124497 81.0284266,160.171741 80.5508741,161.711205 L78.7568437,167.426352 C78.6122152,167.886124 78.1867027,168.198996 77.7053346,168.199509 Z" id="Shape" fill="#662059"></path>
            <path d="M72.4197814,199.335233 L47.8909418,199.335233 C45.8553058,199.335227 44.1227142,197.851069 43.8073539,195.837186 C43.4919937,193.823302 44.6877586,191.879296 46.6256817,191.25531 L61.8206563,186.365085 C62.4001403,186.179526 63.0202217,186.498948 63.2064504,187.078947 C63.3926791,187.658946 63.0747018,188.28041 62.495816,188.467832 L47.3008414,193.358057 C46.8055465,193.51758 46.395631,193.870744 46.1641705,194.337359 C45.93271,194.803974 45.8993443,195.344447 46.0716494,195.836058 C46.3436293,196.608931 47.072621,197.126145 47.8909308,197.126824 L71.4210015,197.126824 L71.8716483,192.585982 C71.9340502,191.981155 72.473,191.540662 73.0772333,191.600637 C73.6814666,191.660613 74.1235778,192.198484 74.0661985,192.80381 L73.517073,198.339953 C73.4612113,198.904869 72.9866646,199.335299 72.4197814,199.335233 Z" id="Shape" fill="#662059"></path>
            <path d="M73.4879848,188.574553 C73.4519167,188.574553 73.414757,188.572345 73.3781487,188.569165 C73.0870976,188.540364 72.8194064,188.396917 72.6340069,188.170403 C72.4486074,187.943889 72.360699,187.652878 72.3896346,187.361435 L73.2984703,178.198868 C73.3608722,177.594041 73.8998221,177.153548 74.5040554,177.213524 C75.1082887,177.273499 75.5503999,177.81137 75.4930205,178.416696 L74.5841848,187.579263 C74.5283109,188.143738 74.0544301,188.573996 73.4879848,188.574553 Z" id="Shape" fill="#662059"></path>
            <path d="M58.9800125,189.373593 C58.4798911,189.373275 58.0425722,189.03603 57.9144996,188.551906 L55.3645947,178.89007 C55.2100084,178.300941 55.5609806,177.697718 56.1490112,177.541879 C56.7370419,177.38604 57.3400351,177.736443 57.4966901,178.325024 L60.0465951,187.98686 C60.1340781,188.318243 60.0629585,188.67152 59.854095,188.943077 C59.6452315,189.214634 59.3222997,189.373689 58.9800125,189.373593 Z" id="Shape" fill="#662059"></path>
            <path d="M124.038668,128.149256 C123.562484,128.149899 123.139708,127.844295 122.990376,127.391498 C122.841043,126.9387 122.998909,126.441063 123.381812,126.157582 C138.340971,115.078824 142.434492,102.303845 135.548779,88.1852754 C135.375851,87.8308442 135.404882,87.4109512 135.624934,87.083766 C135.844987,86.7565808 136.22263,86.5718106 136.615609,86.5990565 C137.008589,86.6263025 137.357202,86.8614253 137.530129,87.2158565 C142.632144,97.6756605 144.546133,113.230565 124.693384,127.932489 C124.504162,128.073486 124.274527,128.149516 124.038668,128.149256 Z" id="Shape" fill="#662059"></path>
            <path d="M134.553252,85.1907467 C134.169163,85.1914129 133.812492,84.9915774 133.612108,84.6634424 C130.325505,79.4658217 126.279249,74.791055 121.60828,70.7950421 C121.335846,70.5556494 121.152782,70.3928226 121.073103,70.3125024 C120.647245,69.8802688 120.649756,69.1848185 121.078726,68.7556808 C121.507695,68.3265431 122.202173,68.3247312 122.63337,68.7516246 C122.697445,68.8163202 122.8455,68.9441104 123.063022,69.1349731 C127.900437,73.2773225 132.090103,78.1227758 135.492223,83.5096536 C135.70057,83.8502424 135.709017,84.2769504 135.514313,84.6255403 C135.319609,84.9741302 134.952105,85.1902615 134.553252,85.1907467 Z" id="Shape" fill="#662059"></path>
            <path d="M103.39499,137.882258 C102.98806,137.883189 102.581593,137.854719 102.178754,137.797068 C100.06075,137.501341 98.1869633,136.269658 97.0735635,134.441308 C95.2962715,131.709902 94.8073954,129.156417 95.6214795,126.85097 C96.1083159,125.552606 96.9257402,124.404301 97.9926319,123.520011 C97.7325705,120.342168 99.6919117,117.403387 102.722554,116.425684 C104.971984,115.784083 108.108262,116.463426 110.173591,120.289314 C113.600024,126.637416 116.149929,130.710294 116.175235,130.750189 C116.466494,131.214792 116.373443,131.823009 115.956643,132.178981 C115.665298,132.426987 109.197956,137.882258 103.39499,137.882258 Z M102.693444,123.318338 C102.628839,123.339903 98.7275228,124.661941 97.6975487,127.596047 C97.1289943,129.216773 97.5408715,131.114634 98.9213487,133.23571 C99.6902879,134.530038 101.005114,135.404118 102.494766,135.611274 C106.613053,136.206509 111.876542,132.547743 113.790586,131.083362 C112.866137,129.561839 110.787344,126.071288 108.233171,121.339572 C107.006681,119.066457 105.171775,118.021554 103.326647,118.54993 C101.790181,119.063036 100.645709,120.360735 100.327176,121.950984 C100.868997,121.663003 101.43245,121.417837 102.012396,121.217723 C102.591651,121.029392 103.213689,121.346959 103.401755,121.927028 C103.589821,122.507097 103.272699,123.130008 102.693444,123.318338 Z" id="Shape" fill="#662059"></path>
            <rect id="Rectangle-path" fill="#FFFFFF" transform="translate(116.286995, 121.997915) rotate(149.999980) translate(-116.286995, -121.997915) " x="110.693402" y="112.322155" width="11.1871856" height="19.3515197" rx="5.59314933"></rect>
            <path d="M118.332637,132.235053 C115.936967,132.233503 113.723255,130.955011 112.522128,128.879293 L108.453373,121.822708 C106.615505,118.616322 107.715672,114.525252 110.912908,112.676708 C114.110143,110.828163 118.198244,111.919533 120.05227,115.116577 L124.120485,122.173173 C125.969233,125.38055 124.872054,129.481431 121.669643,131.333587 C120.655934,131.922976 119.504818,132.23394 118.332637,132.235053 Z M114.245577,113.970319 C112.642117,113.973418 111.161863,114.832108 110.361473,116.223472 C109.561083,117.614837 109.561911,119.327921 110.363646,120.718509 L114.432401,127.775106 C115.027952,128.808013 116.008883,129.561677 117.15937,129.870278 C118.309857,130.17888 119.535645,130.017135 120.567037,129.420632 C121.598565,128.824309 122.351233,127.842 122.659409,126.689871 C122.967585,125.537742 122.806016,124.310202 122.210256,123.277383 L118.142041,116.220798 C117.549125,115.185536 116.567071,114.43101 115.414994,114.125571 C115.033609,114.022954 114.640455,113.970753 114.245544,113.970297 L114.245577,113.970319 Z" id="Shape" fill="#662059"></path>
            <path d="M84.4962966,122.58723 C83.9334042,122.586397 83.4615353,122.161053 83.4017065,121.600563 C82.2608156,110.935884 92.743643,103.896547 101.991897,97.6848254 C102.497644,97.3471696 103.180868,97.4829855 103.519476,97.9884878 C103.858083,98.4939902 103.724386,99.1785538 103.220549,99.5190614 C92.6677357,106.606388 84.6691278,112.715119 85.5941175,121.365488 C85.6269485,121.67716 85.5261645,121.988144 85.3168255,122.221113 C85.1074865,122.454082 84.8092587,122.58715 84.4962966,122.58723 Z" id="Shape" fill="#662059"></path>
            <path d="M105.794139,97.563528 C105.309343,97.5638795 104.881186,97.2471018 104.7391,96.7829436 C104.597015,96.3187854 104.774335,95.8161414 105.176042,95.5443589 C106.241555,94.8234976 107.297376,94.099401 108.33219,93.3677516 C108.654003,93.1402515 109.072569,93.1019586 109.430219,93.2672973 C109.78787,93.4326361 110.030269,93.7764876 110.066108,94.1693263 C110.101946,94.5621651 109.925779,94.9443095 109.603967,95.1718095 C108.557299,95.9120828 107.488555,96.6448254 106.41013,97.3742995 C106.22831,97.4976298 106.013744,97.5635432 105.794139,97.563528 Z" id="Shape" fill="#662059"></path>
            <path d="M114.031793,91.520011 C113.567622,91.5203118 113.152963,91.2294872 112.994588,90.7925577 C112.836213,90.3556283 112.968037,89.8661616 113.324325,89.5682319 C119.003463,84.8187274 121.697662,80.4299241 121.804267,75.7575266 C121.937789,69.8752353 118.805866,61.420058 103.127937,54.5483948 C102.672438,54.3489082 102.363395,54.2087177 102.233678,54.1343161 C101.710143,53.8296882 101.529846,53.1592977 101.829795,52.6325769 C102.129744,52.1058561 102.797712,51.9198799 103.326107,52.2159724 C103.433793,52.2752795 103.67124,52.3760828 104.01204,52.5254493 C120.809325,59.887746 124.157667,69.2503409 124.008554,75.8082098 C123.886875,81.1642788 120.941236,86.0749869 114.738224,91.2633706 C114.540209,91.429442 114.29008,91.5203118 114.031793,91.520011 Z" id="Shape" fill="#662059"></path>
            <path d="M91.5855175,154.177988 C89.8335316,154.177988 88.1822297,154.134857 86.6472255,154.048585 C86.14084,154.020804 85.7187953,153.650469 85.6247825,153.151415 L82.8045932,138.171252 C82.6922965,137.572155 83.0858863,136.995218 83.6840272,136.882148 C84.282168,136.769078 84.8587007,137.162627 84.9722274,137.761491 L87.6314281,151.886542 C89.9670418,151.98898 92.5610973,151.99438 95.3608323,151.907026 C95.6551303,151.889634 95.9436348,151.994109 96.1587571,152.195974 C96.3738793,152.397839 96.4967169,152.679357 96.4984924,152.974576 C96.51787,153.583932 96.0403945,154.093694 95.4318989,154.113292 C94.1041914,154.156422 92.8220643,154.177988 91.5855175,154.177988 Z" id="Shape" fill="#662059"></path>
            <path d="M100.641534,153.849099 C100.047539,153.847946 99.5611639,153.375893 99.5414314,152.781391 C99.5216989,152.186889 99.9756984,151.683537 100.568306,151.642888 C102.811859,151.49192 105.1787,151.288116 107.603695,151.037946 C108.208444,150.977647 108.747976,151.418538 108.81027,152.023925 C108.872563,152.629312 108.43415,153.171115 107.829829,153.235578 C105.378987,153.487912 102.985759,153.693825 100.716912,153.84699 C100.691639,153.848017 100.666333,153.849099 100.641534,153.849099 Z" id="Shape" fill="#662059"></path>
            <path d="M111.923383,152.768607 C111.339541,152.767668 110.857644,152.31112 110.824373,151.727408 C110.791101,151.143697 111.217991,150.635202 111.797933,150.567741 C121.707354,149.418258 129.642427,147.891324 132.243484,147.365101 L131.125209,119.708102 C131.11337,119.415589 131.218083,119.130352 131.416303,118.915171 C131.614523,118.699989 131.890003,118.5725 132.18211,118.560762 C132.475267,118.545394 132.762216,118.649117 132.977984,118.848446 C133.193751,119.047774 133.320086,119.325846 133.328382,119.619699 L134.484887,148.212693 C134.506766,148.749063 134.139953,149.223356 133.61589,149.336315 C133.523818,149.355727 124.260501,151.345248 112.052075,152.761088 C112.009374,152.766263 111.966394,152.768775 111.923383,152.768607 Z" id="Shape" fill="#662059"></path>
            <path d="M110.044337,135.906761 C109.452048,135.905999 108.966159,135.436803 108.943872,134.844101 C108.921585,134.2514 109.370862,133.74694 109.961417,133.701576 C120.692983,132.882043 126.018927,132.053885 126.071689,132.045262 C126.461015,131.984006 126.853401,132.135398 127.101038,132.44241 C127.348675,132.749422 127.413942,133.165412 127.272254,133.533679 C127.130565,133.901946 126.803447,134.166543 126.414121,134.227798 C126.360818,134.235351 120.962727,135.076439 110.129408,135.903525 C110.100871,135.905689 110.072334,135.906761 110.044337,135.906761 Z" id="Shape" fill="#662059"></path>
            <path d="M95.5719038,136.413582 C94.3012627,136.413582 92.89817,136.402794 91.7782738,136.366101 C91.4860272,136.356782 91.2094529,136.231563 91.0094179,136.018002 C90.8093829,135.804441 90.7022802,135.520038 90.7116802,135.227384 C90.7178047,134.933601 90.8419704,134.654702 91.0560898,134.453778 C91.2702092,134.252854 91.5561899,134.146882 91.8493403,134.159834 C94.4924202,134.243942 98.9154163,134.182482 98.9601072,134.182482 C99.5643281,134.185163 100.058298,134.665774 100.078383,135.270515 C100.082621,135.563449 99.9704685,135.846069 99.7666019,136.056187 C99.5627353,136.266306 99.2838586,136.386709 98.9913346,136.390901 C98.8842,136.391961 97.3589103,136.413582 95.5719038,136.413582 Z" id="Shape" fill="#662059"></path>
            <path d="M95.5562901,124.926134 C94.2635738,124.926134 92.865862,124.915346 91.7782738,124.879757 C91.3829669,124.869518 91.0234333,124.64799 90.8361157,124.299242 C90.6487982,123.950495 90.6624081,123.527982 90.8717807,123.192049 C91.0811532,122.856115 91.4541963,122.658251 91.8493403,122.673546 C94.4934677,122.758736 99.1873217,122.692958 99.2336224,122.692958 C99.8426056,122.684323 100.343275,123.171694 100.351898,123.781532 C100.360521,124.39137 99.873833,124.892742 99.2648498,124.901378 C99.1490924,124.902404 97.4665631,124.926134 95.5562901,124.926134 Z" id="Shape" fill="#662059"></path>
            <path d="M91.8138125,125.513816 C91.5213452,125.513893 91.2408347,125.397581 91.034029,125.190485 C90.8272234,124.983389 90.7110749,124.702485 90.711151,124.409607 C90.710464,123.673817 90.1149964,123.077513 89.3802384,123.076825 L83.8884654,123.076825 C83.2794822,123.076825 82.7858038,122.582454 82.7858038,121.972616 C82.7858038,121.362777 83.2794822,120.868406 83.8884654,120.868406 L89.3802384,120.868406 C91.3323859,120.870487 92.9143957,122.454718 92.9164741,124.409607 C92.9165502,124.702485 92.8004017,124.983389 92.593596,125.190485 C92.3867904,125.397581 92.1062799,125.513893 91.8138125,125.513816 Z" id="Shape" fill="#662059"></path>
            <path d="M89.3801943,138.372914 L83.8884213,138.372914 C83.2794381,138.372914 82.7857597,137.878542 82.7857597,137.268704 C82.7857597,136.658866 83.2794381,136.164494 83.8884213,136.164494 L89.3801943,136.164494 C90.1149523,136.163806 90.7104199,135.567503 90.7111068,134.831713 L90.7111068,129.178026 C90.7111068,128.568188 91.2047853,128.073816 91.8137684,128.073816 C92.4227516,128.073816 92.91643,128.568188 92.91643,129.178026 L92.91643,134.831713 C92.9143516,136.786601 91.3323418,138.370832 89.3801943,138.372914 Z" id="Shape" fill="#662059"></path>
            <path d="M65.216435,50.7584375 L65.216435,74.0403147 C65.216435,92.5608944 73.7521384,95.2320442 73.7521384,95.2320442 L76.1527981,92.2937419 L83.5681091,98.4373775 L92.2876593,92.2937419 L93.7576285,94.8313264 C93.7576285,94.8313264 102.826789,91.7595141 102.826789,75.7326377 L102.826789,50.7126349" id="Shape" fill="#F2DDD7"></path>
            <path d="M116.286097,114.359575 C115.888573,114.359112 115.522055,114.144461 115.326751,113.797735 C115.131448,113.451009 115.13758,113.025863 115.342803,112.68493 L119.261342,106.172897 C119.576699,105.652339 120.253276,105.485555 120.773903,105.800033 C121.29453,106.114512 121.462796,106.791613 121.15008,107.313767 L117.231541,113.8258 C117.031898,114.157676 116.672994,114.360305 116.286097,114.359575 Z" id="Shape" fill="#662059"></path>
            <path d="M115.24106,168.723578 C114.808766,168.723515 114.416407,168.470426 114.237593,168.076295 C114.058778,167.682165 114.126516,167.219746 114.410833,166.893648 C116.545815,164.468443 118.406046,161.81394 119.957519,158.978672 C120.247523,158.442856 120.91614,158.243566 121.451539,158.53336 C121.986937,158.823154 122.186719,159.492479 121.897949,160.028963 C120.268578,163.00783 118.314812,165.796853 116.072368,168.345043 C115.863085,168.585828 115.559829,168.723915 115.24106,168.723578 Z" id="Shape" fill="#662059"></path>
            <path d="M122.653339,156.935277 C122.287275,156.935423 121.945031,156.753529 121.739988,156.449854 C121.534945,156.146178 121.493869,155.760364 121.630367,155.420224 C122.363745,153.70554 122.866001,151.900751 123.123911,150.053378 C123.155458,149.660134 123.394107,149.313615 123.749962,149.144352 C124.105817,148.97509 124.524815,149.008797 124.849123,149.232778 C125.173431,149.456758 125.353779,149.836984 125.322232,150.230228 C125.05314,152.30044 124.499623,154.323477 123.677392,156.241921 C123.509744,156.660998 123.104159,156.935608 122.653339,156.935277 Z" id="Shape" fill="#662059"></path>
            <path d="M112.238358,179.411975 L92.2046951,179.411975 C89.3608971,179.408853 87.056321,177.101041 87.0532034,174.253251 L87.0532034,171.149814 C87.056321,168.302019 89.3609038,165.994205 92.2047061,165.991089 L112.238369,165.991089 C115.082176,165.994205 117.38676,168.302025 117.389872,171.149825 L117.389872,174.253262 C117.386748,177.101057 115.08216,179.408865 112.238358,179.411975 Z M92.2046951,168.199498 C90.5782949,168.201256 89.2602769,169.52113 89.2585266,171.149814 L89.2585266,174.253251 C89.2602769,175.881939 90.5783016,177.201814 92.2047061,177.203567 L112.238369,177.203567 C113.864769,177.201814 115.182792,175.881945 115.184549,174.253262 L115.184549,171.149825 C115.182792,169.521145 113.864776,168.201278 112.23838,168.19952 L92.2046951,168.19952 L92.2046951,168.199498 Z" id="Shape" fill="#662059"></path>
            <path d="M90.2454198,168.199509 C89.7640487,168.198995 89.3385353,167.886117 89.1939106,167.426341 L87.4004757,161.711194 C86.922638,160.171934 85.4980871,159.12482 83.8884323,159.129673 C83.2794491,159.129673 82.7857707,158.635301 82.7857707,158.025463 C82.7857707,157.415625 83.2794491,156.921253 83.8884323,156.921253 C86.4623876,156.913394 88.7404076,158.587731 89.5045745,161.049099 L91.2980095,166.764246 C91.403396,167.099769 91.3428246,167.4655 91.1349185,167.748991 C90.9270125,168.032482 90.596656,168.199803 90.2454198,168.199509 Z" id="Shape" fill="#662059"></path>
            <path d="M120.060364,199.335233 L95.5315243,199.335233 C94.9646377,199.335292 94.4900944,198.904852 94.4342437,198.339931 L92.4582741,178.416674 C92.4008948,177.811348 92.843006,177.273477 93.4472393,177.213501 C94.0514726,177.153526 94.5904224,177.594019 94.6528243,178.198846 L96.5302601,197.126769 L120.060353,197.126769 C120.727868,197.12728 121.348108,196.781827 121.699778,196.213664 C122.051449,195.645501 122.08446,194.935555 121.787033,194.337126 C121.557219,193.869306 121.146709,193.515665 120.650453,193.358001 L105.455479,188.467776 C104.876593,188.280355 104.558616,187.658891 104.744844,187.078892 C104.931073,186.498893 105.551154,186.179471 106.130638,186.36503 L121.325613,191.255255 C123.263964,191.878884 124.46017,193.8231 124.144768,195.837279 C123.829366,197.851458 122.096298,199.335688 120.060364,199.335233 Z" id="Shape" fill="#662059"></path>
            <path d="M108.971282,189.373593 C108.628993,189.373692 108.306058,189.214639 108.097192,188.943081 C107.888326,188.671524 107.817205,188.318245 107.904689,187.98686 L110.454594,178.325024 C110.611249,177.736443 111.214242,177.38604 111.802272,177.541879 C112.390303,177.697718 112.741275,178.300941 112.586689,178.89007 L110.036784,188.551906 C109.908712,189.036026 109.4714,189.37327 108.971282,189.373593 Z" id="Shape" fill="#662059"></path>
            <path d="M96.860838,71.7848889 C96.860838,67.2552547 103.224298,67.554893 103.224298,65.0283395 L103.224298,76.1581118 C103.224298,92.1849772 94.155138,95.2568006 94.155138,95.2568006 L92.6851688,92.719216 L83.9656186,98.8628516 L76.5503076,92.719216 L74.1496479,95.6575183 C74.1496479,95.6575183 65.6139445,92.9863685 65.6139445,74.4657888 L65.6139445,65.0283395 C65.6139445,67.5549372 71.9774046,67.2552988 71.9774046,71.7849331" id="Shape" fill="#FFFFFF"></path>
            <path d="M114.784746,33.7440442 C114.784746,31.173576 112.703891,29.0897999 110.137027,29.0897999 C107.570163,29.0897999 105.489308,31.173576 105.489308,33.7440442 C105.489308,36.3145123 107.570163,38.3982885 110.137027,38.3982885 C111.369709,38.3983881 112.551932,37.9080636 113.42357,37.0352019 C114.295208,36.1623401 114.784845,34.978457 114.784746,33.7440442" id="Shape" fill="#FFFFFF"></path>
            <path d="M101.660184,32.5086874 L101.660184,28.2166901 C101.660184,26.6945339 102.892405,25.4605825 104.412427,25.4605825 C105.932449,25.4605825 107.16467,26.6945339 107.16467,28.2166901 L107.16467,29.9733444 L113.3914,30.1742222 L113.3914,25.0989317 C113.3914,11.923334 102.725444,1.24240166 89.5683194,1.24240166 C76.4111951,1.24240166 65.7452384,11.923334 65.7452384,25.0989317 L65.7452384,39.1961684 L101.660184,39.1961684 L101.660184,27.9004444 C101.502601,25.9587182 100.585273,24.157988 99.1079852,22.8904348" id="Shape" fill="#FB5956"></path>
            <path d="M103.516669,51.8250711 L77.1712384,51.8250711 C76.5622552,51.8250711 76.0685768,51.3306995 76.0685768,50.7208613 C76.0685768,50.1110231 76.5622552,49.6166515 77.1712384,49.6166515 L103.516669,49.6166515 C104.79737,49.6152032 105.835223,48.5758933 105.836669,47.2933941 L105.836669,43.3461643 C105.835223,42.063665 104.79737,41.0243551 103.516669,41.0229068 L63.527411,41.0229068 C62.2467099,41.0243551 61.2088573,42.063665 61.207411,43.3461643 L61.207411,47.2933941 C61.2088573,48.5758933 62.2467099,49.6152032 63.527411,49.6166515 L72.7692038,49.6166515 C73.3781869,49.6166516 73.8718652,50.1110231 73.8718652,50.7208613 C73.8718652,51.3306994 73.3781869,51.825071 72.7692038,51.8250711 L63.527411,51.8250711 C61.0292424,51.8224176 59.0047376,49.7950702 59.0020878,47.2933941 L59.0020878,43.3461643 C59.0047376,40.8444881 61.0292424,38.8171407 63.527411,38.8144872 L103.516658,38.8144872 C106.014826,38.8171407 108.039331,40.8444881 108.041981,43.3461643 L108.041981,47.2933941 C108.039331,49.7950659 106.014833,51.8224115 103.516669,51.8250711 Z" id="Shape" fill="#662059"></path>
            <path d="M113.392161,31.2785756 C112.783178,31.2785756 112.2895,30.784204 112.2895,30.1743658 L112.2895,25.0992077 C112.292421,20.9793169 111.176508,16.936181 109.061204,13.4025673 C108.858461,13.0643184 108.85132,12.6434496 109.04247,12.2984982 C109.23362,11.9535468 109.594021,11.7369191 109.987914,11.7302166 C110.381807,11.7235142 110.74935,11.9277552 110.952092,12.2660041 C113.273187,16.1429102 114.49779,20.578919 114.494823,25.0992077 L114.494823,30.1743658 C114.494823,30.784204 114.001144,31.2785756 113.392161,31.2785756 Z" id="Shape" fill="#662059"></path>
            <path d="M107.565499,10.5703244 C107.245906,10.5707833 106.941909,10.4320502 106.732581,10.1902112 C100.44499,2.93966038 90.2922372,0.41612971 81.348749,3.88089993 C80.7810976,4.10184737 80.1420629,3.82014209 79.9214253,3.25169358 C79.7007876,2.68324507 79.9820979,2.04331321 80.5497494,1.82236577 C90.3608231,-1.97990412 101.49935,0.787826121 108.397336,8.7420069 C108.680511,9.06847221 108.747328,9.53042006 108.568292,9.92392868 C108.389256,10.3174373 107.997319,10.5700776 107.565499,10.5703244 Z" id="Shape" fill="#662059"></path>
            <path d="M65.7451171,40.2998813 C65.1361339,40.2998813 64.6424555,39.8055097 64.6424555,39.1956715 L64.6424555,25.0986556 C64.6237184,17.4485628 68.1264543,10.2166487 74.1372981,5.49515528 C74.4464811,5.24919221 74.8633846,5.18752333 75.2303763,5.3334658 C75.5973679,5.47940828 75.8584434,5.81069072 75.9148894,6.20205433 C75.9713353,6.59341793 75.8145379,6.9851391 75.5037825,7.22910697 C70.0240076,11.5325965 66.8306553,18.1249878 66.8477787,25.0986556 L66.8477787,39.1956605 C66.8477816,39.488517 66.73161,39.7693799 66.5248205,39.9764618 C66.318031,40.1835437 66.0375631,40.2998813 65.7451171,40.2998813 Z" id="Shape" fill="#662059"></path>
            <path d="M101.660228,40.2998813 C101.051245,40.2998813 100.557566,39.8055097 100.557566,39.1956715 L100.557566,27.9001684 C100.557566,27.2903302 101.051245,26.7959586 101.660228,26.7959586 C102.269211,26.7959586 102.762889,27.2903302 102.762889,27.9001684 L102.762889,39.1956715 C102.762889,39.8055097 102.269211,40.2998813 101.660228,40.2998813 Z" id="Shape" fill="#662059"></path>
            <path d="M101.660228,33.6131511 C101.051245,33.6131511 100.557566,33.1187796 100.557566,32.5089413 L100.557566,28.216646 C100.557566,26.8375464 101.292275,25.5632058 102.484936,24.873656 C103.677596,24.1841062 105.147015,24.1841062 106.339676,24.873656 C107.532336,25.5632058 108.267045,26.8375464 108.267045,28.216646 L108.267045,29.973245 C108.267045,30.5830832 107.773367,31.0774548 107.164384,31.0774548 C106.5554,31.0774548 106.061722,30.5830832 106.061722,29.973245 L106.061722,28.216646 C106.061722,27.6265388 105.747345,27.0812573 105.237014,26.7862037 C104.726683,26.4911501 104.097929,26.4911501 103.587597,26.7862037 C103.077266,27.0812573 102.762889,27.6265388 102.762889,28.216646 L102.762889,32.5089413 C102.762889,32.801796 102.646716,33.0826561 102.439927,33.2897356 C102.233138,33.4968151 101.952672,33.6131511 101.660228,33.6131511 Z" id="Shape" fill="#662059"></path>
            <path d="M110.136939,39.5024541 C106.961189,39.5024541 104.386735,36.9243855 104.386735,33.7441767 C104.386735,30.5639679 106.961189,27.9858992 110.136939,27.9858992 C113.312689,27.9858992 115.887143,30.5639679 115.887143,33.7441767 C115.887143,34.3540149 115.393464,34.8483865 114.784481,34.8483865 C114.175498,34.8483865 113.681819,34.3540149 113.681819,33.7441767 C113.681819,31.7836443 112.094722,30.1943188 110.136939,30.1943188 C108.179155,30.1943188 106.592058,31.7836443 106.592058,33.7441767 C106.592058,35.704709 108.179155,37.2940345 110.136939,37.2940345 C110.745922,37.2940346 111.2396,37.7884061 111.2396,38.3982443 C111.2396,39.0080825 110.745922,39.502454 110.136939,39.5024541 Z" id="Shape" fill="#662059"></path>
            <path d="M71.7914958,27.2876743 C71.1825126,27.2876743 70.6888342,26.7933027 70.6888342,26.1834645 L70.6888342,25.5515583 C70.700848,14.8149952 79.3893525,6.11429153 90.110862,6.10226087 C90.7198452,6.10226087 91.2135236,6.59663244 91.2135236,7.20647067 C91.2135236,7.8163089 90.7198452,8.31068047 90.110862,8.31068047 C80.60682,8.32150589 72.9049677,16.034172 72.8941574,25.5515583 L72.8941574,26.1834645 C72.8941574,26.7933027 72.400479,27.2876743 71.7914958,27.2876743 Z" id="Shape" fill="#FFFFFF"></path>
            <path d="M71.7914958,34.7453968 C71.1825126,34.7453968 70.6888342,34.2510253 70.6888342,33.641187 L70.6888342,31.185833 C70.6888342,30.5759948 71.1825126,30.0816232 71.7914958,30.0816232 C72.400479,30.0816232 72.8941574,30.5759948 72.8941574,31.185833 L72.8941574,33.641187 C72.8941574,34.2510253 72.400479,34.7453968 71.7914958,34.7453968 Z" id="Shape" fill="#FFFFFF"></path>
            <path d="M97.8434529,47.9393016 L92.2418437,47.9393016 C91.6328605,47.9393016 91.1391821,47.44493 91.1391821,46.8350918 C91.1391821,46.2252536 91.6328605,45.730882 92.2418437,45.730882 L97.8434529,45.730882 C98.452436,45.730882 98.9461144,46.2252536 98.9461144,46.8350918 C98.9461144,47.44493 98.452436,47.9393016 97.8434529,47.9393016 Z" id="Shape" fill="#662059"></path>
            <path d="M83.5223046,99.5417088 C83.2656078,99.5417676 83.0169317,99.4521505 82.8191373,99.2883037 L76.2580802,93.8524444 L74.559397,95.9314617 C74.2739555,96.2794324 73.8065362,96.4196844 73.377046,96.2862333 C72.9969255,96.167078 64.0679578,93.1531484 64.0679578,74.0402926 L64.0679578,50.7586032 C64.0679578,50.1487649 64.5616362,49.6543934 65.1706194,49.6543934 C65.7796026,49.6543934 66.273281,50.1487649 66.273281,50.7586032 L66.273281,74.0402816 C66.273281,88.5238703 71.5329768,92.8096398 73.3931669,93.8713043 L75.253357,91.5944237 C75.439077,91.3668003 75.7079461,91.2229556 76.0001346,91.1948986 C76.2924769,91.1641762 76.5847412,91.2536907 76.8099072,91.4429151 L83.5766327,97.0491539 L91.6069973,91.3906197 C91.8600294,91.212539 92.1760764,91.1489686 92.4781511,91.2153939 C92.7802259,91.2818193 93.0405988,91.4721428 93.1958445,91.7400028 L94.1612137,93.4065645 C96.2567008,92.2441297 101.677937,88.0461891 101.677937,75.7327371 L101.677937,50.7127674 C101.677937,50.1029292 102.171615,49.6085576 102.780598,49.6085576 C103.389581,49.6085576 103.88326,50.1029292 103.88326,50.7127674 L103.88326,75.732715 C103.88326,92.3605576 94.4659452,95.7416701 94.06483,95.8775321 C93.5677709,96.044772 93.0217665,95.8393968 92.7575696,95.3858164 L91.8918038,93.8901753 L84.1570186,99.3405549 C83.9711724,99.4714427 83.7495103,99.5416919 83.5223046,99.5417088 Z" id="Shape" fill="#662059"></path>
            <path d="M78.1075414,61.7467826 C77.4985583,61.7467826 77.0048798,61.252411 77.0048798,60.6425728 C77.0048798,59.4346571 76.0270436,58.4554479 74.8208215,58.4554479 C73.6145994,58.4554479 72.6367631,59.4346571 72.6367631,60.6425728 C72.6367631,61.252411 72.1430847,61.7467826 71.5341015,61.7467826 C70.9251183,61.7467826 70.4314399,61.252411 70.4314399,60.6425728 C70.4314399,58.2149806 72.396633,56.2470283 74.8208215,56.2470283 C77.24501,56.2470283 79.210203,58.2149806 79.210203,60.6425728 C79.210203,61.252411 78.7165246,61.7467826 78.1075414,61.7467826 Z" id="Shape" fill="#662059"></path>
            <path d="M95.5282935,61.7467826 C94.9193104,61.7467826 94.4256319,61.252411 94.4256319,60.6425728 C94.4256319,59.4346571 93.4477957,58.4554479 92.2415736,58.4554479 C91.0353514,58.4554479 90.0575152,59.4346571 90.0575152,60.6425728 C90.0575152,61.252411 89.5638368,61.7467826 88.9548536,61.7467826 C88.3458704,61.7467826 87.852192,61.252411 87.852192,60.6425728 C87.852192,58.2149806 89.8173851,56.2470283 92.2415736,56.2470283 C94.6657621,56.2470283 96.6309551,58.2149806 96.6309551,60.6425728 C96.6309551,61.252411 96.1372767,61.7467826 95.5282935,61.7467826 Z" id="Shape" fill="#662059"></path>
            <path d="M65.170443,64.6028654 C65.170443,67.1294189 71.533903,66.8297805 71.533903,71.3594148" id="Shape" fill="#FFFFFF"></path>
            <path d="M71.5340905,72.463735 C70.9251073,72.463735 70.4314289,71.9693634 70.4314289,71.3595252 C70.4314289,69.5910669 69.1462437,68.8362291 67.1853586,67.8856812 C65.7241114,67.1777612 64.0679688,66.3754755 64.0679688,64.6027108 C64.0679688,63.9928726 64.5616472,63.498501 65.1706304,63.498501 C65.7796136,63.498501 66.273292,63.9928726 66.273292,64.6027108 C66.273292,64.9903658 67.3113487,65.4939517 68.145876,65.8977833 C70.0410757,66.8164859 72.6367411,68.0743906 72.6367411,71.3595252 C72.6367411,71.9693591 72.1430694,72.4637289 71.5340905,72.463735 Z" id="Shape" fill="#662059"></path>
            <path d="M102.780775,64.6028654 C102.780775,67.1294189 96.4173144,66.8297805 96.4173144,71.3594148" id="Shape" fill="#FFFFFF"></path>
            <path d="M96.4172373,72.463735 C95.8082541,72.463735 95.3145757,71.9693634 95.3145757,71.3595252 C95.3145757,68.0743906 97.9102411,66.816519 99.8054407,65.8977833 C100.639979,65.4939517 101.678025,64.9903658 101.678025,64.6027108 C101.678025,63.9928726 102.171703,63.498501 102.780686,63.498501 C103.389669,63.498501 103.883348,63.9928726 103.883348,64.6027108 C103.883348,66.3754865 102.22715,67.1777281 100.765958,67.8856812 C98.805073,68.8362291 97.5198878,69.5910559 97.5198878,71.3595252 C97.5198878,71.9693591 97.0262161,72.4637289 96.4172373,72.463735 Z" id="Shape" fill="#662059"></path>
            <path d="M87.3494114,80.7990614 C87.3494115,81.9749402 86.7229673,83.061497 85.7060543,83.6494364 C84.6891412,84.2373759 83.4362527,84.2373759 82.4193396,83.6494364 C81.4024266,83.061497 80.7759824,81.9749402 80.7759825,80.7990614 L80.7759825,76.2259103 L87.3998251,76.2259103 L87.3494114,80.7990614 Z" id="Shape" fill="#C93E4F"></path>
            <path d="M84.0628734,85.1945231 C81.6397721,85.1920283 79.6759915,83.2257522 79.6731776,80.7992491 C79.6731776,80.1894109 80.166856,79.6950393 80.7758392,79.6950393 C81.3848223,79.6950393 81.8785008,80.1894109 81.8785008,80.7992491 C81.8785008,82.0071649 82.856337,82.9863741 84.0625591,82.9863741 C85.2687813,82.9863741 86.2466175,82.0071649 86.2466175,80.7992491 C86.2466175,80.1894109 86.7402959,79.6950393 87.3492791,79.6950393 C87.9582623,79.6950393 88.4519407,80.1894109 88.4519407,80.7992491 C88.449188,83.225532 86.4857543,85.1917422 84.0628734,85.1945231 Z" id="Shape" fill="#662059"></path>
            <path d="M65.0128837,62.2120856 C63.2787069,62.2120857 61.6762614,61.2856145 60.8091729,59.7816647 C59.9420845,58.2777149 59.9420845,56.4247723 60.8091729,54.9208225 C61.6762614,53.4168727 63.2787069,52.4904015 65.0128837,52.4904017 C65.6218668,52.4904017 66.1155452,52.9847732 66.1155452,53.5946115 C66.1155452,54.2044497 65.6218668,54.6988213 65.0128837,54.6988213 C64.066593,54.6988211 63.1921843,55.20437 62.7190389,56.0250323 C62.2458936,56.8456947 62.2458936,57.8567925 62.7190389,58.6774549 C63.1921843,59.4981173 64.066593,60.0036661 65.0128837,60.003666 C65.4068267,60.003666 65.7708451,60.2141272 65.9678166,60.5557709 C66.1647881,60.8974146 66.1647881,61.318337 65.9678166,61.6599807 C65.7708451,62.0016244 65.4068267,62.2120856 65.0128837,62.2120856 Z" id="Shape" fill="#662059"></path>
            <path d="M103.030483,62.2120856 C102.4215,62.2120856 101.927822,61.717714 101.927822,61.1078758 C101.927822,60.4980375 102.4215,60.003666 103.030483,60.003666 C104.493322,60.0036658 105.679186,58.8161359 105.679186,57.3512436 C105.679186,55.8863513 104.493322,54.6988214 103.030483,54.6988213 C102.4215,54.6988213 101.927822,54.2044497 101.927822,53.5946115 C101.927822,52.9847732 102.4215,52.4904017 103.030483,52.4904017 C104.76466,52.4904017 106.367105,53.4168729 107.234194,54.9208226 C108.101282,56.4247724 108.101282,58.2777149 107.234194,59.7816646 C106.367105,61.2856143 104.76466,62.2120856 103.030483,62.2120856 Z" id="Shape" fill="#662059"></path>
            <path d="M73.2955262,80.780842 C76.9808534,80.7328903 80.6166662,79.924008 83.9755867,78.4047812 L83.957051,78.4047812 C100.272649,85.2607205 106.140926,75.1097308 106.140926,75.1097308 C103.028962,75.7323506 100.71721,74.04196 94.1376278,69.9461587 C87.558046,65.8503575 83.957051,71.1926901 83.957051,71.1926901 L83.9756087,71.1926901 C83.9756087,71.1926901 80.3746137,65.8504017 73.7950319,69.9461366 C67.2154502,74.0418716 64.9036981,75.7323285 61.7917335,75.1097088 C63.2929587,77.322615 65.4726484,78.9860882 68.0014384,79.8487674" id="Shape" fill="#FFFFFF"></path>
            <path d="M73.5412875,81.8867522 C73.4540669,81.8867522 73.367916,81.8862112 73.2812357,81.8851401 C72.6722526,81.8812676 72.181709,81.3837568 72.185576,80.7739186 C72.1894431,80.1640803 72.6862564,79.672848 73.2952395,79.6767205 C73.3910719,79.681568 73.4599882,79.6783326 73.5418278,79.6783326 C76.9481516,79.5858401 80.3033709,78.8258574 83.4178605,77.4413361 C83.7305191,77.2739158 84.102843,77.2603873 84.4267958,77.4046763 C95.3376323,81.9746363 101.248306,78.5719696 103.738447,76.2481712 C101.528813,75.8734465 99.1991202,74.4150062 95.1691346,71.8922622 L93.5555217,70.8840193 C88.4217939,67.6894631 85.5171186,70.9605852 84.9641338,71.6825176 L84.9490605,71.7110945 C84.7389187,72.0458892 84.3726864,72.2501358 83.9778117,72.252757 C83.5829369,72.2553781 83.214033,72.0560114 82.9994776,71.7240359 C82.4675316,71.0064099 79.5854278,67.6430973 74.3768624,70.8840193 L72.7659399,71.8906391 C68.7337932,74.4144651 66.4030202,75.8734465 64.192316,76.2481712 C65.401136,77.3768938 66.8256742,78.2488106 68.3800593,78.8113623 C68.9521715,79.0206955 69.2465,79.6548332 69.0374605,80.2277487 C68.8284209,80.8006643 68.1951723,81.0954061 67.6230601,80.8860732 C64.8508099,79.9367065 62.4667453,78.1016712 60.8374901,75.6631608 C60.6203989,75.2877495 60.6429882,74.819813 60.8952279,74.467122 C61.1474676,74.114431 61.5825977,73.9423671 62.0074141,74.0273292 C64.418935,74.5093389 66.3744502,73.287597 71.5970194,70.018098 L73.2127825,69.008784 C78.6194852,65.6406239 82.3398875,68.0027053 83.9664236,69.5399089 C85.5918791,68.0022084 89.3122814,65.6412091 94.7195795,69.008784 L96.3380331,70.019136 C101.557912,73.2870117 103.511255,74.5109179 105.924948,74.027285 C106.349815,73.9421167 106.785098,74.1141295 107.03739,74.466894 C107.289683,74.8196585 107.312174,75.2877235 107.094872,75.6631166 C105.749194,77.6971224 103.860433,79.3120613 101.643478,80.324196 C98.2972643,81.9276743 92.5314468,83.0836163 83.9664346,79.6033347 C80.6697542,81.0268783 77.1304035,81.8021015 73.5412875,81.8867522 Z" id="Shape" fill="#662059"></path>
            <path d="M79.3701992,66.7568806 C79.3701995,69.2988142 81.4279548,71.3594584 83.9663243,71.3594584 C86.5046939,71.3594584 88.5624491,69.2988142 88.5624494,66.7568806" id="Shape" fill="#F2DDD7"></path>
            <path d="M83.9665008,72.463735 C80.8204038,72.460333 78.2708356,69.9071851 78.2674384,66.7566708 C78.2674384,66.1468326 78.7611168,65.652461 79.3701,65.652461 C79.9790832,65.652461 80.4727616,66.1468326 80.4727616,66.7566708 C80.4727616,68.6887694 82.0368409,70.2550449 83.9662306,70.2550449 C85.8956203,70.2550449 87.4596996,68.6887694 87.4596996,66.7566708 C87.4596996,66.1468326 87.953378,65.652461 88.5623612,65.652461 C89.1713444,65.652461 89.6650228,66.1468326 89.6650228,66.7566708 C89.6616868,69.9069993 87.1124119,72.4600956 83.9665008,72.463735 Z" id="Shape" fill="#662059"></path>
        </g>
    </g>
</svg>